<svg xmlns="http://www.w3.org/2000/svg" viewBox="0 0 482.33 423"><defs><style>.a{fill:none;stroke:#434343;stroke-miterlimit:10;stroke-width:7px;}</style></defs><title>fp</title><path class="a" d="M233.07,111.26c1.17-13.53,2.41-26.7,3.61-38.11a5,5,0,0,0-5-5.54H160a5,5,0,0,0-5,4.66c-2,27.57-2.88,55.32-6.62,82.69Q138,230.52,124.08,305.57c-2.21,11.9-8.39,26-17.48,32.86-8.93,6.72-19.89,11.84-31.88,7.64-10.35-3.62-19.73-10.53-21.5-23.45-1.86-13.58,5.13-24.93,9.05-29.65,31-37.31,42.23-81.3,45.21-128.41,1.92-30.31,4.66-60.56,7.11-91.21a5,5,0,0,0-3.74-5.28c-37.11-8.79-56.78,16-78.8,42.27a5,5,0,0,1-8.82-4.19c10.9-53.87,47.34-93.33,99.66-93.24,76.54,0.14,153.2,1,231.25.87a5,5,0,0,1,5,5v41.1a5,5,0,0,1-5,5H283.31a5,5,0,0,0-5,4.36q-1.51,11.34-3,22.58" transform="translate(-19.62 -9.42)"/><ellipse class="a" cx="306.08" cy="247.25" rx="172.75" ry="172.25"/><polygon class="a" points="306.08 168.23 233.38 224.96 261.48 309.01 350.58 309.01 379.37 223.59 306.08 168.23"/><polyline class="a" points="374.03 88.84 306.08 110.14 238.12 88.84"/><polyline class="a" points="435.94 133.66 435.94 205.14 478.83 270.74"/><polyline class="a" points="342.51 415.65 387.59 358.22 457.38 333.62"/><polyline class="a" points="274.57 416.63 225.84 358.22 153.76 328.57"/><polyline class="a" points="134.93 270.74 174.9 205.54 177.95 131.71"/><line class="a" x1="233.38" y1="224.96" x2="174.9" y2="205.54"/><line class="a" x1="306.08" y1="110.14" x2="306.08" y2="168.23"/><line class="a" x1="379.37" y1="223.59" x2="435.94" y2="205.14"/><line class="a" x1="350.58" y1="309.02" x2="387.59" y2="358.22"/><line class="a" x1="225.84" y1="358.22" x2="261.48" y2="309.02"/></svg>