<svg xmlns="http://www.w3.org/2000/svg" viewBox="0 0 550 550"><defs><style>.a{fill:#ff5722;}.b{fill:#faa629;}.c{fill:none;stroke:#366b34;stroke-miterlimit:10;stroke-width:6px;}.d{fill:#4faf4c;}.e{fill:#e2f3f7;}</style></defs><title>fp4</title><circle class="a" cx="275" cy="275" r="275"/><path class="b" d="M255.17,196.44c0.84-9.69,1.72-19.13,2.58-27.3a3.61,3.61,0,0,0-3.59-4H202.92a3.6,3.6,0,0,0-3.6,3.34c-1.41,19.75-2.06,39.63-4.74,59.23q-7.4,54.13-17.37,107.9c-1.58,8.52-6,18.64-12.5,23.54s-14.23,8.48-22.8,5.47c-7.4-2.6-14.11-7.54-15.38-16.79-1.33-9.73,3.67-17.86,6.48-21.24,22.19-26.73,30.21-58.24,32.34-92,1.37-21.71,3.33-43.38,5.09-65.34a3.58,3.58,0,0,0-2.67-3.78c-26.54-6.3-40.61,11.43-56.37,30.28a3.61,3.61,0,0,1-6.31-3c7.8-38.59,33.86-66.86,71.28-66.79,54.75,0.1,109.58.7,165.41,0.63a3.61,3.61,0,0,1,3.61,3.6v29.44a3.59,3.59,0,0,1-3.6,3.59H291.11a3.6,3.6,0,0,0-3.56,3.12q-1.08,8.12-2.17,16.17" transform="translate(0)"/><path class="c" d="M255.17,196.44c0.84-9.69,1.72-19.13,2.58-27.3a3.61,3.61,0,0,0-3.59-4H202.92a3.6,3.6,0,0,0-3.6,3.34c-1.41,19.75-2.06,39.63-4.74,59.23q-7.4,54.13-17.37,107.9c-1.58,8.52-6,18.64-12.5,23.54s-14.23,8.48-22.8,5.47c-7.4-2.6-14.11-7.54-15.38-16.79-1.33-9.73,3.67-17.86,6.48-21.24,22.19-26.73,30.21-58.24,32.34-92,1.37-21.71,3.33-43.38,5.09-65.34a3.58,3.58,0,0,0-2.67-3.78c-26.54-6.3-40.61,11.43-56.37,30.28a3.61,3.61,0,0,1-6.31-3c7.8-38.59,33.86-66.86,71.28-66.79,54.75,0.1,109.58.7,165.41,0.63a3.61,3.61,0,0,1,3.61,3.6v29.44a3.59,3.59,0,0,1-3.6,3.59H291.11a3.6,3.6,0,0,0-3.56,3.12q-1.08,8.12-2.17,16.17" transform="translate(0)"/><ellipse class="d" cx="321.43" cy="300.61" rx="123.57" ry="123.39"/><path class="e" d="M276.78,187.14s46.35-22.74,89.72,0l-44.86,15.19Z" transform="translate(0)"/><path class="e" d="M415.93,223.37s36.05,39.29,26.51,87.37l-27.21-38.81Z" transform="translate(0)"/><path class="e" d="M425.91,365.65s-26.06,46.54-74.66,52.42l28.36-38Z" transform="translate(0)"/><path class="e" d="M296.26,420s-59.83-13.5-81.36-57.53l48.87,17Z" transform="translate(0)"/><path class="e" d="M198.3,316.05s-4.92-61.22,30.66-94.9l-1.7,51.8Z" transform="translate(0)"/><polygon class="e" points="269.43 283.66 289.53 344.67 353.32 344.67 373.85 283.98 321.43 244.01 269.43 283.66"/><ellipse class="c" cx="321.43" cy="300.61" rx="123.57" ry="123.39"/><polygon class="c" points="321.43 244.01 269.43 284.64 289.53 344.86 353.26 344.86 373.85 283.66 321.43 244.01"/><polyline class="c" points="370.04 187.13 321.43 202.39 272.82 187.13"/><polyline class="c" points="414.32 219.24 414.32 270.44 445 317.44"/><polyline class="c" points="347.49 421.24 379.74 380.1 429.66 362.48"/><polyline class="c" points="298.89 421.95 264.03 380.1 212.48 358.86"/><polyline class="c" points="199.01 317.44 227.6 270.73 229.78 217.84"/><line class="c" x1="269.43" y1="284.64" x2="227.6" y2="270.73"/><line class="c" x1="321.43" y1="202.39" x2="321.43" y2="244.01"/><line class="c" x1="373.85" y1="283.66" x2="414.32" y2="270.44"/><line class="c" x1="353.26" y1="344.85" x2="379.74" y2="380.1"/><line class="c" x1="264.03" y1="380.1" x2="289.53" y2="344.85"/></svg>