<svg xmlns="http://www.w3.org/2000/svg" viewBox="0 0 584.83 499.74"><defs><style>.a{fill:#e53a35;}.b{fill:#feea39;}.c{fill:#14499e;}.d{fill:#fff;}.e{fill:#ee2749;}</style></defs><title>tc1</title><rect class="a" width="500" height="333"/><path class="b" d="M117.69,132.11l29.08,20.64-11-33.8,28.56-21.3H128.89l-11-33.92L106.49,97.67l-35.65.39,28.74,20.89-11,33.82Z" transform="translate(-34.02 -29.74)"/><path class="b" d="M199,57.26c2.21-3,4.67-6.22,6.87-9.24l0.11,11.5,10.95,3.6L206,66.94l-0.12,11.24-7-9L188,72.37c2.13-3.06,4.39-6,6.58-9.15l-6.7-9.42Z" transform="translate(-34.02 -29.74)"/><path class="b" d="M229.34,93.07c-0.07-3.75,0-7.78-.09-11.51l7,9.11,10.91-3.73-6.38,9.6,6.68,9-11-3-6.78,9.12c-0.15-3.72-.12-7.45-0.27-11.27l-11-3.47Z" transform="translate(-34.02 -29.74)"/><path class="b" d="M230.51,141.46c1.11-3.58,2.4-7.4,3.5-11l3.83,10.84,11.52-.14-9.06,7.13L243.84,159l-9.49-6.26-9.29,6.55c1-3.58,2.21-7.11,3.26-10.79l-9.39-6.74Z" transform="translate(-34.02 -29.74)"/><path class="b" d="M199.47,174.32c2.3-3,4.86-6.07,7.16-9l-0.25,11.5,10.83,3.95-11,3.46-0.48,11.24-6.66-9.21-11,2.84c2.22-3,4.58-5.87,6.87-8.94l-6.4-9.62Z" transform="translate(-34.02 -29.74)"/><path class="c" d="M618.86,307.24V418.49c-0.49,0-1-.1-1.48-0.1h-497c-0.49,0-1,.07-1.48.1q0-55.62,0-111.25c0.49,0,1,.1,1.48.1h497C617.87,307.34,618.36,307.27,618.86,307.24Z" transform="translate(-34.02 -29.74)"/><path class="d" d="M118.86,251.74l1.5,0h497l1.5,0v55.5c-0.49,0-1,.1-1.48.1h-497c-0.49,0-1-.07-1.48-0.1v-55.5Z" transform="translate(-34.02 -29.74)"/><path class="d" d="M118.86,418.49c0.49,0,1-.1,1.48-0.1h497c0.49,0,1,.07,1.48.1V474l-1.5,0h-497l-1.5,0Q118.86,446.24,118.86,418.49Z" transform="translate(-34.02 -29.74)"/><path class="e" d="M118.86,251.74v-55.5h500q0,27.75,0,55.5l-1.5,0h-497Z" transform="translate(-34.02 -29.74)"/><path class="e" d="M118.86,474l1.5,0h497l1.5,0v55.49h-500V474Z" transform="translate(-34.02 -29.74)"/></svg>