<svg xmlns="http://www.w3.org/2000/svg" viewBox="0 0 550 550"><defs><style>.a{fill:#009688;}.b{fill:#beddf4;}.c{fill:#016064;}.d{fill:#e2f3f7;}.e{fill:#793493;}</style></defs><title>tc2</title><circle class="a" cx="275" cy="275" r="275"/><rect class="b" x="105" y="130" width="290.68" height="193.24"/><path class="c" d="M153.64,189.4l16.9,12-6.37-19.62,16.6-12.36H160.15l-6.42-19.69-6.6,19.7-20.73.22,16.71,12.12-6.38,19.63Z"/><path class="c" d="M200.89,146c1.28-1.76,2.71-3.61,4-5.36l0.06,6.67,6.36,2.09L205,151.59l-0.07,6.53-4-5.22-6.34,1.85c1.24-1.77,2.55-3.49,3.83-5.31L194.47,144Z"/><path class="c" d="M218.55,166.75c0-2.17,0-4.51-.05-6.68l4.08,5.28,6.34-2.16-3.71,5.57L229.1,174l-6.38-1.73-3.94,5.29c-0.08-2.16-.07-4.32-0.16-6.54l-6.41-2Z"/><path class="c" d="M219.23,194.83c0.64-2.08,1.4-4.29,2-6.36l2.23,6.29,6.7-.08-5.26,4.14L227,205l-5.52-3.63-5.4,3.8c0.59-2.08,1.28-4.13,1.9-6.26L212.5,195Z"/><path class="c" d="M201.19,213.9c1.34-1.72,2.83-3.52,4.16-5.23l-0.15,6.67,6.29,2.29-6.39,2-0.28,6.52L201,220.82l-6.4,1.65c1.29-1.73,2.66-3.41,4-5.19l-3.72-5.59Z"/><path class="c" d="M445,291v64.56c-0.29,0-.58-0.06-0.86-0.06h-289c-0.29,0-.58,0-0.86.06q0-32.28,0-64.56c0.29,0,.58.06,0.86,0.06h289C444.42,291.09,444.71,291.05,445,291Z"/><path class="d" d="M154.32,258.83H445V291c-0.29,0-.58.06-0.86,0.06h-289c-0.29,0-.58,0-0.86-0.06V258.83Z"/><path class="d" d="M154.32,355.59c0.29,0,.58-0.06.86-0.06h289c0.29,0,.58,0,0.86.06V387.8H154.32Q154.32,371.69,154.32,355.59Z"/><path class="e" d="M154.32,258.83V226.62H445q0,16.1,0,32.21H154.32Z"/><path class="e" d="M154.32,387.8H445V420H154.32V387.8Z"/></svg>