<svg xmlns="http://www.w3.org/2000/svg" viewBox="0 0 584.84 499.75"><defs><style>.a{fill:#bdddf4;}.b{fill:#434343;}.c{fill:#4555a5;}.d{fill:#e0f7fa;}.e{fill:#783293;}</style></defs><title>tc3</title><rect class="a" width="500" height="333"/><path class="b" d="M83.67,102.37L112.75,123l-11-33.8,28.56-21.3H94.87L83.87,34,72.47,67.93l-35.65.39L65.56,89.21,54.56,123Z"/><path class="b" d="M165,27.52c2.21-3,4.67-6.22,6.87-9.24L172,29.78l10.95,3.6L172,37.2l-0.12,11.24-7-9L154,42.63c2.13-3.06,4.39-6,6.58-9.15l-6.7-9.42Z"/><path class="b" d="M195.32,63.33c-0.07-3.75,0-7.78-.09-11.51l7,9.11,10.91-3.73-6.38,9.6,6.68,9-11-3-6.78,9.12c-0.15-3.72-.12-7.45-0.27-11.27l-11-3.47Z"/><path class="b" d="M196.49,111.72c1.11-3.58,2.4-7.4,3.5-11l3.83,10.84,11.52-.14-9.06,7.13,3.54,10.71L200.33,123,191,129.55c1-3.58,2.21-7.11,3.26-10.79L184.91,112Z"/><path class="b" d="M165.45,144.58c2.3-3,4.86-6.07,7.16-9l-0.25,11.5L183.19,151l-11,3.46-0.48,11.24-6.66-9.21-11,2.84c2.22-3,4.58-5.87,6.87-8.94l-6.4-9.62Z"/><path class="c" d="M584.84,277.5V388.75c-0.49,0-1-.1-1.48-0.1h-497c-0.49,0-1,.07-1.48.1V277.5c0.49,0,1,.1,1.48.1h497C583.85,277.6,584.34,277.53,584.84,277.5Z"/><path class="d" d="M84.84,222h500v55.5c-0.49,0-1,.1-1.48.1h-497c-0.49,0-1-.07-1.48-0.1V222h0Z"/><path class="d" d="M84.84,388.75c0.49,0,1-.1,1.48-0.1h497c0.49,0,1,.07,1.48.1v55.51H84.8Q84.84,416.5,84.84,388.75Z"/><path class="e" d="M84.84,222V166.5h500V222h-500Z"/><path class="e" d="M84.84,444.26h500v55.49h-500V444.26h0Z"/></svg>