<?xml version="1.0" encoding="utf-8"?>
<!-- Generator: Adobe Illustrator 19.2.0, SVG Export Plug-In . SVG Version: 6.00 Build 0)  -->
<svg version="1.1" id="Layer_1" xmlns="http://www.w3.org/2000/svg" xmlns:xlink="http://www.w3.org/1999/xlink" x="0px" y="0px"
	 viewBox="0 0 584.8 499.7" style="enable-background:new 0 0 584.8 499.7;" xml:space="preserve">
<style type="text/css">
	.st0{fill:#F05323;}
	.st1{fill:#F0F3C5;}
	.st2{fill:#EC407A;}
	.st3{fill:#DD2C00;}
	.st4{fill:#BE3A26;}
</style>
<title>tc2</title>
<rect class="st0" width="500" height="333"/>
<path class="st1" d="M83.7,102.4l29.1,20.6l-11-33.8l28.6-21.3H94.9L83.9,34L72.5,67.9l-35.7,0.4l28.7,20.9l-11,33.8L83.7,102.4z"/>
<path class="st1" d="M165,27.5c2.2-3,4.7-6.2,6.9-9.2l0.1,11.5l10.9,3.6L172,37.2l-0.1,11.2l-7-9L154,42.6c2.1-3.1,4.4-6,6.6-9.2
	l-6.7-9.4L165,27.5z"/>
<path class="st1" d="M195.3,63.3c-0.1-3.8,0-7.8-0.1-11.5l7,9.1l10.9-3.7l-6.4,9.6l6.7,9l-11-3l-6.8,9.1c-0.1-3.7-0.1-7.4-0.3-11.3
	l-11-3.5L195.3,63.3z"/>
<path class="st1" d="M196.5,111.7c1.1-3.6,2.4-7.4,3.5-11l3.8,10.8l11.5-0.1l-9.1,7.1l3.5,10.7l-9.5-6.3l-9.3,6.5
	c1-3.6,2.2-7.1,3.3-10.8l-9.4-6.7L196.5,111.7z"/>
<path class="st1" d="M165.4,144.6c2.3-3,4.9-6.1,7.2-9l-0.2,11.5l10.8,3.9l-11,3.5l-0.5,11.2l-6.7-9.2l-11,2.8
	c2.2-3,4.6-5.9,6.9-8.9l-6.4-9.6L165.4,144.6z"/>
<path class="st2" d="M584.8,277.5v111.2c-0.5,0-1-0.1-1.5-0.1h-497c-0.5,0-1,0.1-1.5,0.1c0-37.1,0-74.2,0-111.2c0.5,0,1,0.1,1.5,0.1
	h497C583.8,277.6,584.3,277.5,584.8,277.5z"/>
<path class="st3" d="M84.8,222h1.5h497h1.5v55.5c-0.5,0-1,0.1-1.5,0.1h-497c-0.5,0-1-0.1-1.5-0.1L84.8,222L84.8,222z"/>
<path class="st3" d="M84.8,388.8c0.5,0,1-0.1,1.5-0.1h497c0.5,0,1,0.1,1.5,0.1v55.5h-1.5h-497h-1.5
	C84.8,425.8,84.8,407.2,84.8,388.8z"/>
<path class="st4" d="M84.8,222v-55.5h500c0,18.5,0,37,0,55.5h-1.5h-497H84.8z"/>
<path class="st4" d="M84.8,444.3h1.5h497h1.5v55.5h-500L84.8,444.3L84.8,444.3z"/>
</svg>
