<?xml version="1.0" encoding="UTF-8" standalone="no"?>
<svg width="100px" height="100px" viewBox="0 0 100 100" version="1.1" xmlns="http://www.w3.org/2000/svg" xmlns:xlink="http://www.w3.org/1999/xlink" xmlns:sketch="http://www.bohemiancoding.com/sketch/ns">
    <!-- Generator: Sketch 3.4.4 (17249) - http://www.bohemiancoding.com/sketch -->
    <title>avatar9</title>
    <desc>Created with Sketch.</desc>
    <defs>
        <path id="path-1" d="M0.6213,4.02493671 C0.62016,4.02037975 0.62016,4.01468354 0.61902,4.00898734 L0.61902,3.99075949 C0.49932,3.23658228 0.40584,2.43455696 0.31236,1.58468354 C0.26904,1.10734177 0.22002,0.622025316 0.17328,0.131012658 C0.17556,0.131012658 0.1767,0.131012658 0.17898,0.129873418 C0.2223,0.622025316 0.27246,1.1164557 0.3192,1.59607595 C0.41268,2.44708861 0.49932,3.24683544 0.62586,4.00329114 L0.62586,4.01924051 C0.62472,4.02037975 0.62244,4.02265823 0.6213,4.02493671 L0.6213,4.02493671 Z"></path>
    </defs>
    <g id="Page-1" stroke="none" stroke-width="1" fill="none" fill-rule="evenodd" sketch:type="MSPage">
        <g id="Artboard-3-Copy-2" sketch:type="MSArtboardGroup">
            <g id="avatar9" sketch:type="MSLayerGroup">
                <path d="M0,0 L100,0 L100,100 L0,100 L0,0 Z" id="Fill-69" fill="#E57373" sketch:type="MSShapeGroup"></path>
                <g id="Group" transform="translate(22.000000, 11.000000)">
                    <path d="M31.87782,38.4425316 C32.73168,40.8508861 35.90544,42.3911392 38.6232,42.295443 C43.59588,42.1211392 48.1137,38.1064557 47.2872,34.6887342 C46.74684,32.4683544 43.6221,32.0889873 39.35052,33.063038 C31.96446,34.7513924 30.96126,35.8644304 31.87782,38.4425316" id="Fill-212" fill="#E9CAA3" sketch:type="MSShapeGroup"></path>
                    <path d="M28.67328,48.5487342 L28.67328,89.0293671 L6.57096,89.0293671 C6.21528,88.8801266 6.02832,88.796962 6.02832,88.796962 C6.02832,79.4939241 8.50554,73.8865823 11.343,70.5132911 C15.12438,65.9905063 19.5567,65.4653165 19.5567,65.4653165 L19.66728,65.4653165 L19.96026,65.4003797 C21.07746,65.0916456 21.83442,63.4568354 22.34742,61.1122785 C22.4409,60.7135443 22.515,60.2943038 22.58112,59.8443038 C22.70082,59.1060759 22.8114,58.3131646 22.8912,57.4986076 C22.93452,57.0053165 22.98468,56.5131646 23.03142,55.9993671 C23.23092,53.516962 23.29476,50.8192405 23.29476,48.2548101 C23.29476,48.2548101 26.26902,48.5487342 28.67328,48.5487342" id="Fill-977" fill="#D4B591" sketch:type="MSShapeGroup"></path>
                    <path d="M51.39234,88.796962 C51.39234,88.796962 51.18828,88.8801266 50.86566,89.0293671 L28.67328,89.0293671 L28.67328,48.5487342 L28.7166,48.5487342 C31.12086,48.5487342 34.11222,48.2548101 34.11222,48.2548101 C34.11222,50.8021519 34.16922,53.4713924 34.37214,55.9412658 C34.41888,56.4368354 34.46904,56.9255696 34.51236,57.4074684 C34.60584,58.2573418 34.69932,59.0593671 34.81902,59.8135443 L34.81902,59.8317722 C34.86918,60.1712658 34.93302,60.4777215 34.99914,60.7864557 C35.45628,63.0558228 36.14256,64.7248101 37.1298,65.2762025 L37.36692,65.3707595 C37.51968,65.4356962 37.69296,65.4653165 37.86054,65.4653165 C37.86054,65.4653165 42.71238,66.0486076 46.6032,71.1581013 C49.20468,74.5872152 51.39234,80.0772152 51.39234,88.796962" id="Fill-978" fill="#E9CAA3" sketch:type="MSShapeGroup"></path>
                    <g id="Group-981" transform="translate(34.200000, 55.822785)">
                        <mask id="mask-2" sketch:name="Clip 980" fill="white">
                            <use xlink:href="#path-1"></use>
                        </mask>
                        <g id="Clip-980"></g>
                        <path d="M0.17328,0.129873418 L0.62586,0.129873418 L0.62586,4.02493671 L0.17328,4.02493671 L0.17328,0.129873418 Z" id="Fill-979" fill="#B78A7A" sketch:type="MSShapeGroup" mask="url(#mask-2)"></path>
                    </g>
                    <path d="M28.67328,63.1617722 C25.15752,63.1424051 23.11122,60.6007595 22.58796,59.8579747 C22.70766,59.1163291 22.81482,58.3302532 22.89462,57.5122785 C22.93794,57.0178481 22.9881,56.5222785 23.03484,56.013038 C24.75168,56.4448101 26.61216,56.7079747 28.60944,56.7398734 L28.67328,56.7398734 L28.67328,63.1617722" id="Fill-982" fill="#BD9B7F" sketch:type="MSShapeGroup"></path>
                    <path d="M28.70292,63.1617722 L28.6767,63.1617722 L28.67328,63.1617722 L28.67328,56.7398734 L28.6767,56.7398734 C30.71502,56.7079747 32.60742,56.4322785 34.37328,55.9537975 C34.42002,56.4448101 34.46904,56.9301266 34.51236,57.4074684 C34.60584,58.2573418 34.69932,59.0593671 34.81902,59.8135443 L34.81902,59.8317722 C34.82016,59.8374684 34.82016,59.8431646 34.8213,59.8477215 C34.27638,60.7237975 32.40222,63.1617722 28.70292,63.1617722" id="Fill-983" fill="#C2A184" sketch:type="MSShapeGroup"></path>
                    <path d="M51.33876,88.7810127 C51.33876,88.7810127 51.13128,88.858481 50.80866,89.0156962 L6.49458,89.0156962 C6.13434,88.858481 5.94852,88.7810127 5.94852,88.7810127 C5.94852,72.2494937 13.80426,67.3781013 17.54574,65.9905063 C19.97964,68.6563291 24.80184,72.3292405 28.52622,72.5103797 L28.70976,72.5103797 C32.44782,72.3292405 37.27002,68.641519 39.70734,65.9734177 C43.42602,67.3473418 51.33876,72.2016456 51.33876,88.7810127" id="Fill-984" fill="#3A232E" sketch:type="MSShapeGroup"></path>
                    <path d="M28.65618,5.05367089 C5.58828,5.01379747 5.45832,23.4694937 6.48774,35.5067089 C4.90086,32.6779747 0.2223,33.7272152 0.60648,38.2522785 C0.97242,42.5836709 7.58556,44.55 7.4955,44.066962 C9.37992,53.8746835 20.25324,59.3225316 28.65618,60.0960759 L28.83402,60.1029114 L28.83402,5.05822785 L28.65618,5.05367089" id="Fill-985" fill="#C39D7F" sketch:type="MSShapeGroup"></path>
                    <path d="M2.00298,36.2358228 C3.16008,34.4882278 4.9476,35.2401266 5.38422,35.6274684 C5.85162,36.0455696 6.21528,36.596962 5.93484,37.6348101 C5.7684,38.2181013 5.12088,38.2625316 5.2782,39.1443038 C5.45148,40.14 5.93484,40.2060759 6.21528,40.4282278 C6.48774,40.6503797 6.83544,40.826962 7.0053,41.2450633 C7.16832,41.665443 7.2048,42.1108861 7.10904,42.4959494 C6.93234,43.2125316 5.8311,42.6394937 5.09466,42.3262025 C4.60446,42.1108861 3.05976,40.8816456 2.66646,40.4612658 C1.68606,39.4177215 1.23234,37.3955696 2.00298,36.2358228" id="Fill-986" fill="#B29177" sketch:type="MSShapeGroup"></path>
                    <path d="M28.77018,5.05367089 C51.8358,5.01379747 51.96918,23.4694937 50.94546,35.5067089 C52.5255,32.6779747 57.20406,33.7272152 56.82102,38.2522785 C56.45394,42.5836709 49.84194,44.55 49.9377,44.066962 C48.04416,53.8746835 37.17654,59.3225316 28.77018,60.0960759 L28.5969,60.1029114 L28.5969,5.05822785 L28.77018,5.05367089" id="Fill-987" fill="#D1AE8F" sketch:type="MSShapeGroup"></path>
                    <path d="M55.67988,36.1013924 C54.51936,34.3526582 52.73868,35.1079747 52.29864,35.4953165 C51.83238,35.9134177 51.4653,36.4648101 51.75258,37.5003797 C51.91218,38.0836709 52.55856,38.1281013 52.39896,39.0098734 C52.2291,40.0055696 51.74232,40.0716456 51.46872,40.2937975 C51.1917,40.5159494 50.84856,40.6936709 50.6787,41.1106329 C50.5077,41.5298734 50.47806,41.9775949 50.57154,42.361519 C50.75166,43.0792405 51.85176,42.5050633 52.59276,42.1929114 C53.07954,41.9810127 54.6231,40.7494937 55.01298,40.3279747 C55.9968,39.2832911 56.45052,37.264557 55.67988,36.1013924" id="Fill-988" fill="#B29177" sketch:type="MSShapeGroup"></path>
                    <path d="M28.53648,10.2782278 C20.8335,10.2782278 15.19506,12.3972152 11.78076,16.5702532 C7.01556,22.4008861 7.19454,31.3086076 8.95584,37.7008861 C9.48936,39.6592405 9.7698,44.9225316 10.13688,46.8581013 C11.80356,55.5060759 21.89142,60.1120253 28.53648,60.1120253 L28.71318,60.1029114 L28.71318,10.2793671 L28.53648,10.2782278" id="Fill-989" fill="#D4B591" sketch:type="MSShapeGroup"></path>
                    <path d="M45.25344,16.5782278 C41.86878,12.4302532 36.29304,10.3192405 28.71318,10.2793671 L28.71318,60.1029114 C36.29988,60.0231646 45.36972,54.9797468 46.92696,46.8581013 C47.29746,44.9225316 47.57334,39.6592405 48.11142,37.7008861 C49.86474,31.3234177 50.03118,22.4259494 45.25344,16.5782278" id="Fill-990" fill="#E9CAA3" sketch:type="MSShapeGroup"></path>
                    <path d="M32.59146,52.294557 C32.59146,52.294557 30.85068,54.146962 28.70292,54.146962 C26.55858,54.146962 24.91584,52.3321519 24.91584,52.3321519 C24.91584,52.3321519 26.55858,52.0541772 28.70292,52.0541772 C30.85068,52.0541772 32.59146,52.294557 32.59146,52.294557" id="Fill-991" fill="#B16164" sketch:type="MSShapeGroup"></path>
                    <path d="M29.80416,51.4378481 C29.19996,51.4378481 28.7166,51.8103797 28.70292,52.2797468 C28.69038,51.8103797 28.2093,51.4378481 27.60624,51.4378481 C26.99634,51.4378481 24.81894,52.294557 24.81894,52.294557 C24.81894,52.294557 26.94276,52.5167089 27.54924,52.5167089 C28.15686,52.5167089 28.69038,52.7570886 28.70292,52.3048101 C28.71318,52.7605063 29.1498,52.5827848 29.75742,52.5827848 C30.3639,52.5827848 32.59146,52.294557 32.59146,52.294557 C32.59146,52.294557 30.41406,51.4378481 29.80416,51.4378481" id="Fill-992" fill="#BF6868" sketch:type="MSShapeGroup"></path>
                    <path d="M38.6232,42.295443 C35.90544,42.3911392 32.73168,40.8508861 31.87782,38.4425316 C30.96126,35.8644304 31.96446,34.7513924 39.35052,33.063038 C43.6221,32.0889873 46.74684,32.4683544 47.2872,34.6887342 C48.1137,38.1064557 43.59588,42.1211392 38.6232,42.295443 L38.6232,42.295443 Z M25.79592,38.4379747 C24.93864,40.8508861 21.76374,42.3911392 19.04598,42.295443 C14.08128,42.1165823 9.55548,38.1064557 10.38312,34.6887342 C10.92348,32.4660759 14.04822,32.0889873 18.31638,33.063038 C25.70928,34.7513924 26.70906,35.8644304 25.79592,38.4379747 L25.79592,38.4379747 Z M49.62762,31.3894937 C47.06376,30.7116456 41.16768,31.7472152 38.73378,32.2837975 C36.24972,32.8363291 30.8313,34.8379747 29.82354,35.2355696 C29.40744,35.3973418 29.09052,35.4543038 28.84314,35.4816456 C28.59006,35.4622785 28.26972,35.3973418 27.84336,35.2287342 C26.84244,34.8379747 21.4206,32.8329114 18.93996,32.2826582 C16.50834,31.7472152 10.60656,30.7082278 8.0484,31.3860759 C7.3017,31.5865823 7.07826,32.1994937 7.07826,32.1994937 C7.16832,32.8978481 9.00258,43.1886076 19.21926,43.1851899 C21.95412,43.1851899 23.64132,42.2418987 24.79158,41.4011392 C25.94184,40.5603797 27.17988,38.5473418 27.54012,38.0289873 C27.8958,37.5083544 28.27656,37.1335443 28.80666,37.1734177 L28.83402,37.1620253 L28.86708,37.1756962 C29.39718,37.1358228 29.7768,37.5106329 30.1302,38.0289873 C30.48702,38.5473418 31.73076,40.5660759 32.87874,41.4022785 C34.029,42.2441772 35.71962,43.1851899 38.45334,43.1886076 C48.66774,43.1886076 50.502,32.8989873 50.59548,32.2017722 C50.59548,32.2017722 50.36862,31.5865823 49.62762,31.3894937 L49.62762,31.3894937 Z" id="Fill-993" fill="#3A232E" sketch:type="MSShapeGroup"></path>
                    <path d="M53.05902,18.0353165 C52.7763,17.2594937 52.48218,16.5394937 52.18236,15.8479747 L52.18236,15.5529114 C52.18236,14.5640506 51.72522,13.7460759 50.96142,12.9486076 C51.51204,12.2696203 51.44478,11.306962 50.77446,10.6997468 C51.09822,10.6518987 51.4083,10.5151899 51.65226,10.2793671 C52.23936,9.71316456 52.212,8.81316456 51.59526,8.27658228 L51.06516,7.81746835 C51.25212,7.72746835 51.4254,7.60670886 51.585,7.45063291 C52.1721,6.88329114 52.29636,6.11202532 51.8586,5.73493671 L51.61236,5.52189873 C51.7788,5.45468354 51.93954,5.35329114 52.07862,5.21772152 C52.50612,4.80303797 52.59618,4.24367089 52.27926,3.96683544 L48.47736,0.659620253 C48.16386,0.38278481 47.55738,0.49556962 47.13102,0.907974684 C46.98966,1.0435443 46.89048,1.19620253 46.82664,1.35227848 L46.6431,1.19164557 C46.20648,0.812278481 45.37998,0.96721519 44.79288,1.53455696 C44.63556,1.68835443 44.51244,1.85696203 44.42238,2.03012658 L44.1864,1.82278481 C43.56966,1.28392405 42.58926,1.3078481 42.00216,1.87746835 C41.75478,2.11556962 41.62482,2.41746835 41.59518,2.72278481 C40.84164,2.17936709 39.74724,2.23405063 39.0735,2.88683544 C38.90364,3.05544304 38.7771,3.2456962 38.69388,3.44506329 C37.32018,2.63962025 36.03312,2.28873418 34.2456,2.34113924 L34.21824,2.40151899 C32.6211,2.07911392 24.04146,0.487594937 18.93312,2.25227848 C13.29126,4.19924051 8.66628,7.54746835 5.40816,16.5337975 C3.09966,22.8964557 3.7677,28.435443 4.5771,32.2462025 C4.70706,32.8613924 4.84158,33.4344304 4.96812,33.9562025 C5.1642,34.7662025 5.3409,35.4668354 5.4549,36.0262025 C5.48796,36.1925316 5.5347,36.3634177 5.5746,36.5343038 C5.72166,37.1586076 5.90862,37.7829114 6.13434,38.401519 C9.4164,47.4812658 20.19396,55.8091139 20.19396,55.8091139 C20.19396,55.8091139 14.64102,49.6116456 13.55802,46.9629114 L13.4976,46.8079747 C12.65742,44.7356962 11.46042,41.2541772 11.46042,36.18 C11.46042,34.9781013 11.63712,33.9858228 11.90046,33.1587342 C12.60042,30.9793671 13.93764,30.0212658 14.45406,29.7227848 C14.32752,30.0725316 14.1474,30.9451899 13.91826,33.025443 C13.41096,37.4639241 16.06488,40.8964557 16.06488,40.8964557 C16.06488,40.8964557 12.70416,35.1307595 18.07242,30.8278481 C19.78014,29.4573418 21.21084,28.0264557 22.3611,26.7243038 L22.35768,26.7334177 C21.00678,30.1374684 24.0882,38.0631646 24.0882,38.0631646 C24.0882,38.0631646 23.66868,28.6291139 26.46966,27.146962 C27.71682,26.4873418 28.77018,25.8983544 29.66394,25.3572152 L29.88396,25.2250633 L30.12336,25.0746835 C33.7383,22.8281013 34.5819,21.415443 35.33658,19.136962 C35.46882,18.7405063 35.54292,18.3736709 35.59194,18.0182278 L41.82774,26.4258228 C42.12186,26.7903797 42.59496,27.4101266 43.149,28.2087342 C44.76894,30.5396203 47.00334,34.3606329 47.00334,37.6826582 C47.00334,38.6487342 46.97712,39.4986076 46.93038,40.2459494 C46.7172,43.5144304 46.14378,44.7653165 46.14378,44.7653165 C46.14378,44.7653165 46.84032,44.7539241 48.0111,43.9029114 C49.01088,43.1749367 50.35152,41.8431646 51.91218,39.3789873 C52.26558,38.8207595 52.63266,38.2032911 53.00658,37.5231646 L53.04648,37.4468354 C53.53896,36.5308861 54.03942,35.1455696 54.39966,33.3979747 C54.49656,32.9274684 54.57978,32.4239241 54.65274,31.8998734 C55.16004,28.231519 54.9936,23.3749367 53.05902,18.0353165" id="Fill-994" fill="#0C0C0D" sketch:type="MSShapeGroup"></path>
                </g>
            </g>
        </g>
    </g>
</svg>