<?xml version="1.0" encoding="UTF-8" standalone="no"?>
<svg width="100px" height="100px" viewBox="0 0 100 100" version="1.1" xmlns="http://www.w3.org/2000/svg" xmlns:xlink="http://www.w3.org/1999/xlink" xmlns:sketch="http://www.bohemiancoding.com/sketch/ns">
    <!-- Generator: Sketch 3.4.4 (17249) - http://www.bohemiancoding.com/sketch -->
    <title>avatar7</title>
    <desc>Created with Sketch.</desc>
    <defs></defs>
    <g id="Page-1" stroke="none" stroke-width="1" fill="none" fill-rule="evenodd" sketch:type="MSPage">
        <g id="Artboard-3" sketch:type="MSArtboardGroup">
            <g id="avatar7" sketch:type="MSLayerGroup">
                <path d="M42.5076884,100.698129 L29.3831708,100.698129 C29.0531713,100.539324 28.8684617,100.481884 28.8684617,100.481884 C28.8954924,100.096697 28.8954924,99.728404 28.8954924,99.3871417 C28.8684617,96.2155429 27.9268933,94.5238733 29.1128641,91.354527 C30.4238517,87.825898 29.4484949,87.9419046 31.6492421,84.1846412 C33.2046321,81.5277514 37.0463663,80.104136 39.7010036,79.4080962 C41.2958133,78.9936259 42.4682687,78.8381995 42.4682687,78.8381995 C42.4682687,78.8381995 42.9390529,91.7509768 42.5076884,100.698129" id="Fill-708" fill="#CABB87" sketch:type="MSShapeGroup"></path>
                <path d="M0,0 L100,0 L100,100 L0,100 L0,0 Z" id="Fill-58" fill="#A1887F" sketch:type="MSShapeGroup"></path>
                <path d="M50.4325808,63.2710508 L50.4325808,100.571126 L30.0863687,100.571126 C29.7563692,100.412321 29.5716596,100.35488 29.5716596,100.35488 C29.5986903,99.9696934 29.5986903,99.6014005 29.5986903,99.2601382 C29.9241846,84.6692067 37.0906916,80.4603058 40.4042015,79.2810927 C41.3998312,78.9240626 42.0418097,78.8542333 42.0418097,78.8542333 C42.1870995,78.8542333 42.3290106,78.8260764 42.4574063,78.7967931 C42.8121838,78.6830391 43.1252891,78.4127324 43.3989747,78.0286716 L43.4260054,78.0016409 C43.9294516,77.2898332 44.3112599,76.1973435 44.6085973,74.8424311 C44.6941944,74.4752644 44.7662762,74.0900774 44.8259689,73.6789859 C44.9374704,72.9829461 45.0264464,72.2700121 45.1120435,71.5154058 C45.1390742,71.0637684 45.1976407,70.6098783 45.2404392,70.1357153 C45.4251488,67.8459921 45.4814627,65.3569177 45.4814627,62.996239 C45.4814627,62.996239 48.2228234,63.2710508 50.4325808,63.2710508" id="Fill-702" fill="#D4B591" sketch:type="MSShapeGroup"></path>
                <path d="M70.5587569,100.35488 C70.5587569,100.35488 70.3740473,100.412321 70.0744573,100.571126 L49.6381429,100.571126 L49.6381429,63.2710508 L49.6809415,63.2710508 C51.895204,63.2710508 54.6489538,62.996239 54.6489538,62.996239 C54.6489538,65.3434024 54.6917523,67.8043198 54.8899772,70.0805277 C54.9158816,70.535544 54.9755744,70.9916866 55.0149941,71.4298087 C55.1073489,72.2114457 55.1760519,72.950284 55.2920585,73.6485764 L55.2920585,73.6643443 C55.3472461,73.975197 55.40356,74.2612716 55.4598739,74.5450937 C55.6310682,75.4269694 55.845061,76.2097326 56.1187465,76.8494585 C56.4870395,77.7989108 56.9589499,78.4690463 57.5322254,78.711196 C57.7034197,78.8114348 57.9005184,78.8542333 58.0987433,78.8542333 C58.0987433,78.8542333 70.5587569,80.3330363 70.5587569,100.35488" id="Fill-703" fill="#E9CAA3" sketch:type="MSShapeGroup"></path>
                <path d="M44.3631208,72.8830515 C44.3619945,72.8796726 44.359742,72.8774201 44.3574894,72.8740413 C44.4723698,72.1892642 44.5714822,71.4639412 44.643564,70.71384 C44.6863626,70.2565712 44.7257823,69.8026811 44.7719597,69.3330232 C44.7753385,69.3330232 44.7775911,69.3341495 44.7798437,69.3341495 C44.7787174,69.336402 44.7787174,69.3375283 44.7787174,69.3386546 C44.7359188,69.8128176 44.6773524,70.2667077 44.6503217,70.7183452 C44.5647246,71.4729514 44.4757486,72.1858854 44.3642471,72.8819252 C44.3631208,72.8819252 44.3631208,72.8830515 44.3631208,72.8830515 M55.6247746,72.8695361 L55.6247746,72.8672836 L55.6247746,72.8515157 C55.5673344,72.5080009 55.5222833,72.1554759 55.4794847,71.7916881 C55.5245358,72.1532233 55.5729658,72.5046221 55.6315322,72.8458843 L55.6315322,72.8593996 C55.6292797,72.8627785 55.6270271,72.8661573 55.6247746,72.8695361 M55.310543,70.2531923 C55.2835123,69.9941484 55.2542291,69.7305993 55.2350824,69.465924 C55.2609868,69.7305993 55.2857649,69.9941484 55.310543,70.2531923" id="Fill-704" fill="#AD7B6F" sketch:type="MSShapeGroup"></path>
                <path d="M49.9652276,75.9149919 L49.9584699,75.9149919 C46.733936,75.9026028 44.8553043,73.5757125 44.3574894,72.8819252 C44.3574894,72.8819252 44.3574894,72.8807989 44.3586157,72.8807989 C44.4701172,72.1847591 44.5590932,71.4718251 44.6446903,70.7172189 C44.671721,70.2655814 44.7302874,69.8116914 44.773086,69.3375283 C44.773086,69.336402 44.773086,69.3352758 44.7742123,69.3330232 C46.353254,69.7339782 48.0640703,69.9738754 49.9032823,69.9997798 L49.9584699,69.9997798 L49.9652276,69.9997798 L49.9652276,75.9149919" id="Fill-705" fill="#BD9B7F" sketch:type="MSShapeGroup"></path>
                <path d="M49.6617947,75.9701795 L49.6381429,75.9701795 L49.6381429,70.0549674 C51.5201535,70.0279367 53.2568741,69.7733979 54.8832196,69.3330232 C54.8899772,69.3949685 54.8956086,69.4580401 54.9023663,69.5199854 C54.921513,69.7846607 54.9507963,70.0482097 54.9778269,70.3072537 C54.9890897,70.4322705 55.0003525,70.5572874 55.0116153,70.681178 C55.0566664,71.0810067 55.099465,71.4684463 55.1467686,71.8457494 C55.1895672,72.2095372 55.2346183,72.5620623 55.2920585,72.905577 L55.2920585,72.9213449 L55.2920585,72.9235975 C54.7829808,73.7300125 53.0563967,75.9701795 49.6617947,75.9701795" id="Fill-706" fill="#C2A184" sketch:type="MSShapeGroup"></path>
                <path d="M57.2107783,100.698129 L70.3386748,100.698129 C70.6652954,100.539324 70.8567627,100.481884 70.8567627,100.481884 C70.8274794,100.096697 70.8274794,99.728404 70.8274794,99.3871417 C70.8567627,96.2155429 71.7915734,94.5238733 70.6123603,91.354527 C69.2979939,87.825898 70.2699718,87.9419046 68.0692246,84.1846412 C66.5138347,81.5277514 62.6799843,80.104136 60.0242208,79.4080962 C58.4226535,78.9936259 57.2535769,78.8381995 57.2535769,78.8381995 C57.2535769,78.8381995 56.7827927,91.7509768 57.2107783,100.698129" id="Fill-707" fill="#CABB87" sketch:type="MSShapeGroup"></path>
                <path d="M46.3366396,75.6698074 C46.1812132,75.7385104 44.0198857,76.737519 44.0198857,76.7510343 C43.7011491,76.9931841 39.6747052,78.8346486 39.3627262,79.1195969 C37.7971998,80.4418473 39.183648,83.0525597 38.0641277,84.512216 C33.2999717,90.70224 31.3301115,94.1103572 31.7355715,100.071747 L50.3551995,100.071747 L50.3551995,79.7536915 L46.3366396,75.6698074" id="Fill-709" fill="#416541" sketch:type="MSShapeGroup"></path>
                <path d="M53.6578291,75.6698074 C53.815508,75.7385104 55.9768355,76.737519 55.9768355,76.7510343 C56.2933196,76.9931841 60.3130058,78.657823 60.6227323,78.9461501 C62.1871324,80.2672742 60.8130733,83.0525597 61.9325936,84.512216 C66.6967496,90.70224 68.6666098,94.1103572 68.2656548,100.071747 L49.6381429,100.071747 L49.6381429,79.7536915 L53.6578291,75.6698074" id="Fill-710" fill="#3B5B3B" sketch:type="MSShapeGroup"></path>
                <path d="M56.9507219,75.1787286 C56.2952281,72.2706788 55.9990169,72.5071972 55.9990169,72.5071972 C55.9990169,72.5071972 55.8999045,72.3866854 56.0710987,73.2460355 C56.2299039,74.0040206 52.0716855,75.0739847 50.7573191,75.2260323 L50.7539403,75.2237797 L50.7404249,75.2260323 L50.5635993,75.2418002 L50.4047941,75.2327899 L50.3687532,75.2237797 L50.3653744,75.2271586 C48.9980729,75.0784899 44.5571587,74.0051469 44.7058274,73.2460355 C44.870264,72.3866854 44.7711515,72.5071972 44.7711515,72.5071972 C44.7711515,72.5071972 44.4940871,72.2706788 43.8813919,75.1787286 C43.6054538,76.4762009 43.3013587,77.0460975 43.3013587,77.0460975 C43.3013587,77.0460975 44.7846668,77.979782 46.1981457,78.4460611 C49.2120657,79.4450697 50.2076954,83.7665984 50.2076954,83.7665984 L50.2234633,83.6697385 L50.2268422,83.7665984 C50.2268422,83.7665984 51.2810384,79.4450697 54.4864256,78.4460611 C55.9855016,77.979782 57.5600383,77.0460975 57.5600383,77.0460975 C57.5600383,77.0460975 57.2413016,76.4762009 56.9507219,75.1787286" id="Fill-711" fill="#2D432C" sketch:type="MSShapeGroup"></path>
                <path d="M49.4691523,19.6948803 C27.9133175,19.6948803 27.7916795,37.6736561 28.7501421,49.4410087 C27.2713391,46.6512181 22.9025067,47.5128208 23.2550317,51.9041787 C23.6007991,56.1423628 29.7851916,58.3340998 29.6962156,57.836285 C31.4622195,67.5234021 41.6054793,73.1131198 49.4691523,73.1131198 L49.6335889,73.1074884 L49.6335889,19.6982591 L49.4691523,19.6948803" id="Fill-712" fill="#C39D7F" sketch:type="MSShapeGroup"></path>
                <path d="M49.8037058,19.6948803 C71.3595405,19.6948803 71.4845574,37.6736561 70.5249685,49.4410087 C72.001519,46.6512181 76.3759828,47.5128208 76.0167001,51.9041787 C75.6709327,56.1423628 69.4910453,58.3340998 69.5800213,57.836285 C67.8106385,67.5234021 57.6673788,73.1131198 49.8037058,73.1131198 L49.6381429,73.1074884 L49.6381429,19.6982591 L49.8037058,19.6948803" id="Fill-714" fill="#D1AE8F" sketch:type="MSShapeGroup"></path>
                <path d="M74.4497654,50.3393735 C73.3888115,48.6420725 71.7410668,49.3752795 71.3401119,49.7480775 C70.9109999,50.1557901 70.5753691,50.6930247 70.8321605,51.6999173 C70.984208,52.2608037 71.5833879,52.3058549 71.4392243,53.1640787 C71.2804191,54.1270464 70.8321605,54.190118 70.5753691,54.4097422 C70.3253354,54.6271138 70.0020936,54.7915504 69.8477935,55.2003893 C69.695746,55.6103545 69.6664627,56.0428453 69.7520599,56.4122645 C69.9164965,57.1083043 70.9312729,56.5553018 71.6092923,56.2500804 C72.0575509,56.0462241 73.4811663,54.846738 73.840449,54.4401517 C74.7459765,53.4265015 75.1615731,51.4712828 74.4497654,50.3393735" id="Fill-715" fill="#B29177" sketch:type="MSShapeGroup"></path>
                <path d="M49.7033311,24.9755338 C42.6100322,24.9755338 37.4212695,27.0309912 34.275575,31.0833394 C29.8909747,36.7383813 30.0554113,45.3836913 31.6761254,51.584978 C32.1705614,53.4805038 32.4205951,58.5926797 32.7629836,60.4701852 C34.295848,68.8609563 43.585389,73.3277749 49.7033311,73.3277749 L49.8677677,73.3221435 L49.8677677,24.9800389 L49.7033311,24.9755338" id="Fill-716" fill="#D4B591" sketch:type="MSShapeGroup"></path>
                <path d="M64.8654215,31.0889708 C61.7490103,27.0625269 56.6165614,25.0081959 49.6381429,24.9755338 L49.6381429,73.3176384 C56.6233191,73.2421777 64.9712917,68.3462472 66.4072961,60.46568 C66.742927,58.5881746 67.0008446,53.4759987 67.4952807,51.5804729 C69.1092371,45.3927015 69.266916,36.7620331 64.8654215,31.0889708" id="Fill-717" fill="#E9CAA3" sketch:type="MSShapeGroup"></path>
                <path d="M72.5909022,35.1798785 C72.2181041,32.5027156 71.5930198,29.6025498 70.6210419,27.4581165 C69.0465053,24.0252211 66.2555884,22.0294565 62.1412948,20.0967634 L62.1536839,19.8703815 C62.1536839,18.9997686 62.0264145,18.1595652 61.8112954,17.3463925 L65.8242239,17.3463925 C65.9030634,17.8622278 66.3479432,18.2575514 66.8851778,18.2575514 C67.4809788,18.2575514 67.9652784,17.7755044 67.9652784,17.1830822 C67.9652784,16.5884074 67.4809788,16.1097393 66.8851778,16.1097393 C66.3479432,16.1097393 65.9030634,16.5050629 65.8242239,17.0175193 L61.7189406,17.0175193 C60.3426289,12.4752401 55.7789504,9.1335733 50.3469115,9.1335733 C44.9148727,9.1335733 40.3444366,12.4752401 38.9737562,17.0175193 L28.9521346,17.0175193 C28.8732951,16.5050629 28.4284153,16.1097393 27.892307,16.1097393 C27.2953796,16.1097393 26.8144589,16.5884074 26.8144589,17.1830822 C26.8144589,17.7755044 27.2953796,18.2575514 27.892307,18.2575514 C28.4284153,18.2575514 28.8732951,17.8622278 28.9521346,17.3463925 L38.8892854,17.3463925 C38.7507532,17.8678592 38.6448831,18.3960836 38.591948,18.9434547 C30.6032581,21.0676151 27.5330243,30.1803304 26.8966772,34.3103918 C26.8572575,34.6099818 26.8110801,34.8892987 26.7716603,35.1798785 C25.9156891,41.4194586 26.7254829,43.9918776 27.4372906,45.3884623 C27.7695426,46.0574714 28.0826479,46.4539213 28.1817604,46.8683916 C28.5545584,48.3483209 28.9656499,48.8281153 29.7101197,50.3958943 C30.1910404,50.8216274 30.8104933,51.4061657 31.1923015,52.4265736 C31.8782048,54.1869461 32.1349962,53.8941138 32.1349962,53.8941138 C32.1349962,53.8941138 31.1799124,47.6759329 31.0808,45.3884623 C31.0639058,45.2600666 31.0639058,45.1474388 31.0639058,45.0472001 C31.0639058,43.9378162 31.5786149,38.3773817 35.2874483,35.1798785 C35.4620214,35.0210733 35.6433522,34.8656469 35.8449559,34.7226096 C38.9715037,32.4036032 44.292041,33.3879702 44.8777056,33.3879702 C44.9903334,33.3879702 46.2055873,34.3103918 47.9445606,35.1798785 C49.6283462,36.0302184 51.7964313,36.8264969 53.9374858,36.729637 C67.2377028,36.0595016 70.0342511,43.1573056 70.3372199,44.6372349 C70.321452,44.8771321 70.2910425,45.1327972 70.2786534,45.3884623 C70.1198482,47.2276743 69.9227496,49.3585923 69.7774597,50.7945967 C69.5341837,52.4986554 69.3224434,53.8941138 69.3224434,53.8941138 C69.3224434,53.8941138 69.5927501,54.1869461 70.2651381,52.4265736 C70.5917587,51.5604658 71.0760582,51.0232312 71.5040439,50.6065083 C71.5761257,49.6435406 72.4884109,47.1386983 72.6179328,46.8683916 C72.7328132,46.6397572 72.8476935,46.0878809 72.9332907,45.3884623 C73.088717,44.2925938 73.1878295,42.8869989 73.1878295,42.0197648 C73.1878295,41.2336227 73.0594338,38.3773817 72.5909022,35.1798785" id="Fill-718" fill="#301822" sketch:type="MSShapeGroup"></path>
                <path d="M54.9724764,63.328491 C54.9724764,63.328491 52.5768831,65.8840158 49.6249084,65.8840158 C46.6706812,65.8840158 44.4136201,63.3848049 44.4136201,63.3848049 C44.4136201,63.3848049 46.6706812,62.996239 49.6249084,62.996239 C52.5768831,62.996239 54.9724764,63.328491 54.9724764,63.328491" id="Fill-719" fill="#B16164" sketch:type="MSShapeGroup"></path>
                <path d="M51.276032,61.996239 C50.4425863,61.996239 49.776956,62.5154532 49.7600618,63.1529265 C49.7409151,62.5154532 49.0752848,61.996239 48.2485967,61.996239 C47.4117722,61.996239 44.4136201,63.1720732 44.4136201,63.1720732 C44.4136201,63.1720732 47.3363115,63.4806734 48.1765149,63.4806734 C49.0065818,63.4806734 49.7409151,63.8050415 49.7600618,63.1889674 C49.7701983,63.8129254 50.3772621,63.5707757 51.207329,63.5707757 C52.0441536,63.5707757 55.1076298,63.1720732 55.1076298,63.1720732 C55.1076298,63.1720732 52.1162354,61.996239 51.276032,61.996239" id="Fill-720" fill="#BF6868" sketch:type="MSShapeGroup"></path>
            </g>
        </g>
    </g>
</svg>