<?xml version="1.0" encoding="UTF-8" standalone="no"?>
<svg width="100px" height="100px" viewBox="0 0 100 100" version="1.1" xmlns="http://www.w3.org/2000/svg" xmlns:xlink="http://www.w3.org/1999/xlink" xmlns:sketch="http://www.bohemiancoding.com/sketch/ns">
    <!-- Generator: Sketch 3.4.4 (17249) - http://www.bohemiancoding.com/sketch -->
    <title>avatar6</title>
    <desc>Created with Sketch.</desc>
    <defs></defs>
    <g id="Page-1" stroke="none" stroke-width="1" fill="none" fill-rule="evenodd" sketch:type="MSPage">
        <g id="Artboard-2-Copy-2" sketch:type="MSArtboardGroup">
            <g id="avatar6" sketch:type="MSLayerGroup">
                <path d="M0,0 L100,0 L100,100 L0,100 L0,0 Z" id="Fill-65" fill="#795548" sketch:type="MSShapeGroup"></path>
                <path d="M74.5243066,54.0248378 C73.5063066,52.4048378 71.9413066,53.1018378 71.5583066,53.4618378 C71.1513066,53.8468378 70.8263066,54.3608378 71.0753066,55.3118378 C71.2183066,55.8488378 71.7893066,55.8898378 71.6483066,56.7118378 C71.4963066,57.6258378 71.0753066,57.6868378 70.8263066,57.8968378 C70.5893066,58.1088378 70.2853066,58.2598378 70.1363066,58.6518378 C69.9903066,59.0368378 69.9643066,59.4518378 70.0453066,59.8018378 C70.2033066,60.4638378 71.1633066,59.9418378 71.8123066,59.6448378 C72.2423066,59.4518378 73.5963066,58.3158378 73.9363066,57.9298378 C74.7993066,56.9568378 75.1993066,55.0998378 74.5243066,54.0248378" id="Fill-971" fill="#B29177" sketch:type="MSShapeGroup"></path>
                <g id="Group" transform="translate(21.000000, 11.000000)" sketch:type="MSShapeGroup">
                    <path d="M3.41176471,31.85 L3.41176471,63.820575 L3.43223529,63.820575 C3.92466667,65.3926 15.0379216,76.3888125 28.6906667,76.3888125 C42.3388627,76.3888125 53.4566667,65.3926 53.9422745,63.820575 L53.9695686,63.820575 L53.9695686,31.85 L3.41176471,31.85" id="Fill-962" fill="#3A232E"></path>
                    <path d="M28.4313725,50.338925 L28.4313725,90.7304125 L6.23516372,90.7304125 C5.87649499,90.5814 5.68627451,90.5006375 5.68627451,90.5006375 C5.68627451,68.8312625 19.2744337,67.21715 19.2744337,67.21715 C20.6380625,67.21715 21.4997842,65.4983875 22.0796128,62.881 C22.1770149,62.4726375 22.2537906,62.059725 22.3179614,61.61155 C22.445157,60.8755875 22.5459968,60.09185 22.6262102,59.2717125 C22.6731924,58.7848625 22.7201746,58.287775 22.7671567,57.78045 C22.9676904,55.298425 23.0284234,52.6059625 23.0284234,50.05 C23.0284234,50.05 26.0249689,50.338925 28.4313725,50.338925" id="Fill-963" fill="#D4B591"></path>
                    <path d="M50.0392157,90.5006375 C50.0392157,90.5006375 49.8461626,90.5814 49.5381454,90.738375 L28.4313725,90.738375 L28.4313725,50.338925 L28.4758398,50.338925 C30.7599395,50.338925 33.6025915,50.05 33.6025915,50.05 C33.6025915,52.5889 33.6633273,55.25065 33.8563804,57.7178875 C33.9008477,58.2127 33.945315,58.7052375 33.9930359,59.1829875 C34.0754631,60.030425 34.1643976,60.82895 34.2847847,61.581975 L34.2847847,61.59335 C34.3292519,61.9346 34.3899877,62.244 34.449639,62.5534 C34.9886691,65.3414125 35.8422239,67.21715 37.1686503,67.21715 C37.1686503,67.21715 50.0392157,68.8312625 50.0392157,90.5006375" id="Fill-964" fill="#E9CAA3"></path>
                    <path d="M35.254902,60.7390875 L35.254902,60.7504625 C34.6988848,61.6149625 32.7825488,64.064 28.9953374,64.064 L28.9638647,64.064 C25.3701519,64.0514875 23.2836304,61.5057625 22.745098,60.7686625 C22.8744857,60.0327 22.9770633,59.2489625 23.0586591,58.428825 C23.1064509,57.941975 23.1542428,57.4448875 23.2020346,56.9375625 C24.9610072,57.3698125 26.8598584,57.6268875 28.8997537,57.6587375 L28.9638647,57.6587375 C31.0573802,57.6268875 32.991201,57.35275 34.7944684,56.875 C34.8422603,57.3698125 34.8900521,57.86235 34.9413409,58.3401 C35.0299306,59.1875375 35.1255143,59.9860625 35.254902,60.7390875" id="Fill-965" fill="#B29177"></path>
                    <path d="M20.4774118,86.447725 C20.4774118,87.07335 19.9724706,87.58295 19.3333333,87.58295 C18.7044314,87.58295 18.1960784,87.07335 18.1960784,86.447725 C18.1960784,85.819825 18.7044314,85.3125 19.3333333,85.3125 C19.9724706,85.3125 20.4774118,85.819825 20.4774118,86.447725" id="Fill-966" fill="#C39D7F"></path>
                    <path d="M38.6780392,86.447725 C38.6780392,87.07335 38.1651373,87.58295 37.5339608,87.58295 C36.9016471,87.58295 36.3921569,87.07335 36.3921569,86.447725 C36.3921569,85.819825 36.9016471,85.3125 37.5339608,85.3125 C38.1651373,85.3125 38.6780392,85.819825 38.6780392,86.447725" id="Fill-967" fill="#C39D7F"></path>
                    <path d="M28.4081071,3.4125 C5.06481302,3.4125 4.9317542,22.8876375 5.97006792,35.624225 C4.37336204,32.6087125 -0.363304627,33.540325 0.0222247851,38.2962125 C0.397518903,42.8871625 7.08798949,45.2508875 6.99132282,44.72195 C8.9110091,55.207425 19.8889307,61.2737125 28.4081071,61.2737125 L28.5809699,61.25665 L28.5809699,3.4125 L28.4081071,3.4125" id="Fill-968" fill="#C39D7F"></path>
                    <path d="M1.52413431,36.4282529 C2.6818598,34.5855029 4.45825195,35.3783404 4.89723235,35.7878404 C5.36350686,36.2257779 5.72970293,36.8104529 5.43970293,37.8922154 C5.28389901,38.5030529 4.6311147,38.5496904 4.79487941,39.4847154 C4.96774215,40.5243904 5.45676176,40.5937779 5.72287941,40.8326529 C5.99582058,41.0738029 6.34154607,41.2455654 6.51440882,41.6914654 C6.68044803,42.1294029 6.70774215,42.6014654 6.61789901,42.9995904 C6.43821274,43.7526154 5.33621274,43.1588404 4.60495784,42.8210029 C4.11934999,42.6014654 2.5783696,41.3092654 2.18601666,40.8701904 C1.21138921,39.7634029 0.756487249,37.6510654 1.52413431,36.4282529" id="Fill-969" fill="#B29177"></path>
                    <path d="M28.6110588,3.4125 C51.9543529,3.4125 52.0874118,22.8876375 51.049098,35.624225 C52.6458039,32.6087125 57.3858824,33.540325 56.9901176,38.2962125 C56.6216471,42.8871625 49.9243529,45.2508875 50.0210196,44.72195 C48.1115686,55.207425 37.1302353,61.2737125 28.6110588,61.2737125 L28.4313725,61.25665 L28.4313725,3.4125 L28.6110588,3.4125" id="Fill-970" fill="#D1AE8F"></path>
                    <path d="M28.618387,9.1 C20.9407792,9.1 15.3193282,11.318125 11.9155243,15.7122875 C7.1617988,21.8388625 7.34148507,31.2004875 9.09513213,37.9117375 C9.63077919,39.974025 9.90372036,45.5034125 10.272191,47.540675 C11.9325831,56.6281625 21.9916027,61.4705 28.618387,61.4705 L28.7912498,61.4602625 L28.7912498,9.1 L28.618387,9.1" id="Fill-972" fill="#D4B591"></path>
                    <path d="M44.9181569,15.7213875 C41.5450588,11.3568 35.9895686,9.14095 28.4313725,9.1 L28.4313725,61.4534375 C35.9963922,61.3738125 45.0375686,56.071925 46.5944706,47.540675 C46.9606667,45.5034125 47.2404314,39.974025 47.7726667,37.9117375 C49.5149412,31.215275 49.6889412,21.8707125 44.9181569,15.7213875" id="Fill-973" fill="#E9CAA3"></path>
                    <path d="M53.8779567,34.3786625 C53.4128194,34.8268375 51.8422704,34.841625 50.3717998,37.7797875 C49.4676822,39.5770375 48.7750939,39.75335 48.7750939,39.75335 C48.7750939,39.75335 49.9134861,32.4062375 49.9134861,30.3632875 C49.9134861,28.3248875 43.3765449,13.206375 39.7373292,11.9812875 C36.0742312,10.785775 32.8012116,14.8500625 28.8685841,14.8500625 L28.5626626,14.8500625 C24.7176037,14.7693 21.30129,10.7982875 17.7018782,11.9812875 C14.0524273,13.206375 7.52230962,28.3248875 7.52230962,30.3632875 C7.52230962,32.4062375 8.66297629,39.75335 8.66297629,39.75335 C8.66297629,39.75335 7.51548609,39.2744625 6.65685864,37.4590125 C5.17387825,34.3172375 4.08552531,34.80295 3.56693707,34.354775 C2.59572138,21.6181875 5.63674099,4.55 28.5296822,4.55 L28.6559175,4.55 C51.6762312,4.55 54.88329,21.64435 53.8779567,34.3786625" id="Fill-974" fill="#392A1D"></path>
                    <path d="M55.0569241,20.431775 C54.1357476,17.7916375 53.7138261,16.7337625 53.6035123,14.548625 C53.4841006,12.3703125 52.0795908,10.34215 50.2372378,8.351525 C49.1989241,7.2401875 46.9301006,4.834375 42.7256692,3.1087875 C39.4390025,1.7619875 34.1826104,0.166075 28.8773163,0.0091 L28.8773163,0 L28.7738261,0.0091 L28.6737476,0 L28.6737476,0.0091 C23.375277,0.166075 18.1154731,1.7619875 14.8253947,3.1087875 C10.6277868,4.834375 8.34872802,7.2401875 7.31723782,8.351525 C5.47488488,10.34215 4.07378684,12.3703125 3.95778684,14.548625 C3.83837508,16.7337625 3.41190449,17.7916375 2.49413978,20.431775 C1.57637508,23.079875 3.86112018,24.0183125 3.39939469,26.0862875 C2.93994371,28.1554 3.39939469,33.5437375 3.39939469,33.5437375 C3.72464959,33.3935875 7.94955155,30.7250125 8.88437508,29.81615 C12.2074339,26.5731375 15.9637868,21.9207625 28.7738261,21.7251125 C41.2620221,21.9128 45.5301398,28.508025 48.9726104,31.8306625 C50.050728,32.8783 53.7968457,33.3799375 54.1562182,33.5437375 C54.1562182,33.5437375 54.6145319,28.1554 54.1562182,26.0862875 C53.6967672,24.0183125 55.9849241,23.079875 55.0569241,20.431775" id="Fill-975" fill="#FFFFFF"></path>
                    <path d="M30.0404603,59.5742875 C29.869872,59.0100875 29.7800289,58.3230375 29.463872,58.0216 C28.9691662,58.5983125 28.5028916,58.94525 28.5028916,58.94525 C28.5028916,58.94525 28.0639113,58.58125 27.6044603,58.0125 C27.2519113,58.3366875 26.9494014,58.8212625 26.7560681,59.43665 L26.5866171,58.7188875 C26.5866171,58.7188875 25.7746171,59.707375 25.6154014,60.3864625 C25.4595975,61.0484875 26.0248132,61.754875 26.0248132,61.754875 C26.0248132,61.754875 26.2943426,61.618375 26.5536367,61.3965625 C26.7901858,63.060725 28.4164603,64.3745375 28.4164603,64.3745375 C28.4164603,64.3745375 30.0597936,63.14945 30.3930093,61.52055 C30.5920289,61.6581875 30.7717152,61.7446375 30.7717152,61.7446375 C30.7717152,61.7446375 31.3699113,61.035975 31.1777152,60.37395 C30.851323,59.2148375 30.2326563,58.5073125 30.2326563,58.5073125 C30.2326563,58.5073125 30.2792838,59.5401625 30.0404603,59.5742875" id="Fill-976" fill="#3A232E"></path>
                </g>
            </g>
        </g>
    </g>
</svg>