<?xml version="1.0" encoding="UTF-8" standalone="no"?>
<svg width="100px" height="100px" viewBox="0 0 100 100" version="1.1" xmlns="http://www.w3.org/2000/svg" xmlns:xlink="http://www.w3.org/1999/xlink" xmlns:sketch="http://www.bohemiancoding.com/sketch/ns">
    <!-- Generator: Sketch 3.4.4 (17249) - http://www.bohemiancoding.com/sketch -->
    <title>avatar2</title>
    <desc>Created with Sketch.</desc>
    <defs></defs>
    <g id="Page-1" stroke="none" stroke-width="1" fill="none" fill-rule="evenodd" sketch:type="MSPage">
        <g id="Artboard-1-Copy" sketch:type="MSArtboardGroup">
            <g id="avatar2" sketch:type="MSLayerGroup">
                <path d="M0,0 L100,0 L100,100 L0,100 L0,0 Z" id="Fill-38" fill="#00897B" sketch:type="MSShapeGroup"></path>
                <path d="M35.643,57.7086667 C35.251,57.4146667 28.0666667,53 28.0666667,53 C28.5578333,55.7498333 28.9265,56.8733333 28.2101667,58.7388333 C27.5591667,60.4176667 26.3131667,61.0675 25.6271667,61.6555 C24.9376667,62.2435 23.5388333,62.6868333 23.0511667,62.6868333 C22.5518333,62.6868333 22,62.5981667 22,62.5981667 C22,62.5981667 23.1421667,63.2246667 25.9993333,63.101 C27.2033333,63.0485 27.9651667,62.7498333 28.4633333,62.4033333 C27.8963333,63.3133333 27.3643333,64.6188333 27.9616667,65.8275 C30.1211667,70.2258333 27.2418333,71.662 27.2418333,71.662 C27.2418333,71.662 29.7945,71.4076667 31.2575,70.1196667 L31.268,70.2258333 C31.9201667,72.4261667 33.6328333,72.67 33.6328333,72.67 C33.6328333,72.67 32.5548333,72.4926667 32.7555,70.4475 C32.8173333,69.905 33.3808333,69.6868333 34.0866667,69.3216667 C34.3596667,71.2945 35.2545,73.307 33.4076667,74.1295 C33.4076667,74.1295 36.5308333,73.5088333 37.1036667,71.662 C37.2063333,71.3225 37.2611667,71.0075 37.3113333,70.6936667 C37.3626667,70.8686667 37.428,71.0296667 37.4583333,71.2151667 C37.9051667,73.5695 36.1108333,75.855 36.1108333,75.855 C36.1108333,75.855 42.5916667,75.1701667 42.6383333,72.6046667 C42.6453333,72.2208333 42.727,70.6493333 42.9253333,70.0625 C43.1236667,69.4721667 43.5121667,66.5333333 43.5121667,66.5333333 C43.5121667,66.5333333 36.0396667,58.0015 35.643,57.7086667" id="Fill-398" fill="#0B0B0C" sketch:type="MSShapeGroup"></path>
                <path d="M61.8726667,57.7086667 C62.2646667,57.4146667 69.4478333,53 69.4478333,53 C68.9566667,55.7498333 68.588,56.8733333 69.309,58.7388333 C69.9565,60.4176667 71.199,61.0675 71.8885,61.6555 C72.578,62.2435 73.9768333,62.6868333 74.468,62.6868333 C74.9603333,62.6868333 75.5156667,62.5981667 75.5156667,62.5981667 C75.5156667,62.5981667 74.3723333,63.2246667 71.5128333,63.101 C70.3123333,63.0485 69.5505,62.7498333 69.0558333,62.4033333 C69.6228333,63.3133333 70.1548333,64.6188333 69.554,65.8275 C67.3945,70.2258333 70.2773333,71.662 70.2773333,71.662 C70.2773333,71.662 67.7258333,71.4076667 66.2581667,70.1196667 L66.2441667,70.2258333 C65.5955,72.4261667 63.8828333,72.67 63.8828333,72.67 C63.8828333,72.67 64.9643333,72.4926667 64.7555,70.4475 C64.7018333,69.905 64.1348333,69.6868333 63.429,69.3216667 C63.1525,71.2945 62.2611667,73.307 64.108,74.1295 C64.108,74.1295 60.9848333,73.5088333 60.4155,71.662 C60.3093333,71.3225 60.258,71.0075 60.2031667,70.6936667 C60.153,70.8686667 60.0876667,71.0296667 60.0538333,71.2151667 C59.6105,73.5695 61.4048333,75.855 61.4048333,75.855 C61.4048333,75.855 54.9251667,75.1701667 54.8726667,72.6046667 C54.8691667,72.2208333 54.7875,70.6493333 54.5938333,70.0625 C54.3955,69.4721667 54,66.5333333 54,66.5333333 C54,66.5333333 61.4795,58.0015 61.8726667,57.7086667" id="Fill-399" fill="#0B0B0C" sketch:type="MSShapeGroup"></path>
                <path d="M48.0525,62.2706667 L48.0525,99.9376667 L27.5051667,99.9376667 C27.1703333,99.7965 27,99.7218333 27,99.7218333 C27,79.5186667 39.5778333,78.0125 39.5778333,78.0125 C40.8343333,78.0125 41.6393333,76.4013333 42.1725,73.9606667 C42.2611667,73.5885 42.3288333,73.2 42.3906667,72.7823333 C42.5061667,72.0928333 42.6018333,71.359 42.6776667,70.6018333 C42.7185,70.1421667 42.7628333,69.6813333 42.8071667,69.2076667 C42.995,66.8976667 43.0521667,64.3835 43.0521667,62 C43.0521667,62 45.8171667,62.2706667 48.0525,62.2706667" id="Fill-400" fill="#D4B591" sketch:type="MSShapeGroup"></path>
                <path d="M69.1236667,99.7218333 C69.1236667,99.7218333 68.9358333,99.7965 68.636,99.9376667 L48,99.9376667 L48,62.2706667 L48.0408333,62.2706667 C50.2761667,62.2706667 53.0563333,62 53.0563333,62 C53.0563333,64.3706667 53.1146667,66.8521667 53.299,69.1516667 C53.3468333,69.6125 53.3876667,70.0698333 53.432,70.5143333 C53.5183333,71.3088333 53.6035,72.0508333 53.719,72.7555 L53.719,72.7695 C53.7633333,73.0833333 53.8181667,73.3726667 53.88,73.6596667 C54.412,76.259 55.2473333,78.0125 56.5411667,78.0125 C56.5411667,78.0125 69.1236667,79.5186667 69.1236667,99.7218333" id="Fill-401" fill="#E9CAA3" sketch:type="MSShapeGroup"></path>
                <path d="M48.6618333,75.65 C45.3881667,75.6348333 43.4876667,73.2641667 43,72.5746667 C43.1155,71.8851667 43.2111667,71.1513333 43.287,70.3941667 C43.3278333,69.9345 43.3721667,69.4736667 43.4165,69 C45.0136667,69.4048333 46.7438333,69.6463333 48.6035,69.6731667 L48.6618333,69.6731667 L48.6618333,75.65" id="Fill-402" fill="#BD9B7F" sketch:type="MSShapeGroup"></path>
                <path d="M48.0303333,75.706 L48,75.706 L48,69.7291667 C49.9005,69.7023333 51.661,69.4445 53.299,69 C53.3468333,69.4608333 53.3876667,69.9181667 53.432,70.3626667 C53.5183333,71.1571667 53.6035,71.8991667 53.719,72.6038333 L53.719,72.6178333 C53.2138333,73.4216667 51.4731667,75.706 48.0303333,75.706" id="Fill-403" fill="#C2A184" sketch:type="MSShapeGroup"></path>
                <path d="M48.4891389,18 C26.7238055,18 26.6013055,36.1591667 27.5673055,48.0416667 C26.0751389,45.2241667 21.6593055,46.0956667 22.0209722,50.5325 C22.3698055,54.8095 28.6079722,57.0168333 28.5193055,56.5186667 C30.3066389,66.2988333 40.5453055,71.9478333 48.4891389,71.9478333 L48.6571389,71.9408333 L48.6571389,18.0058333 L48.4891389,18" id="Fill-404" fill="#C39D7F" sketch:type="MSShapeGroup"></path>
                <path d="M23.3663299,49.0828762 C24.4408299,47.3690429 26.0998299,48.1098762 26.5058299,48.4878762 C26.9421632,48.8985429 27.2839965,49.4398762 27.0144965,50.4572096 C26.8639965,51.0230429 26.2596632,51.0685429 26.4101632,51.9353762 C26.5711632,52.9107096 27.0238299,52.9702096 27.2804965,53.1930429 C27.5359965,53.4147096 27.8533299,53.5827096 28.0143299,53.9922096 C28.1706632,54.4063762 28.1986632,54.8427096 28.1099965,55.2172096 C27.9454965,55.9160429 26.9223299,55.3618762 26.2328299,55.0503762 C25.7824965,54.8438762 24.3451632,53.6352096 23.9834965,53.2268762 C23.0653299,52.2002096 22.6429965,50.2250429 23.3663299,49.0828762" id="Fill-405" fill="#B29177" sketch:type="MSShapeGroup"></path>
                <path d="M48.1668333,18 C69.9321667,18 70.0558333,36.1591667 69.0898333,48.0416667 C70.5808333,45.2241667 74.9966667,46.0956667 74.635,50.5325 C74.2873333,54.8095 68.0491667,57.0168333 68.1343333,56.5186667 C66.3493333,66.2988333 56.1048333,71.9478333 48.1668333,71.9478333 L48,71.9408333 L48,18.0058333 L48.1668333,18" id="Fill-406" fill="#D1AE8F" sketch:type="MSShapeGroup"></path>
                <path d="M72.792977,49.0828762 C71.7208103,47.3690429 70.059477,48.1098762 69.6523103,48.4878762 C69.215977,48.8985429 68.8753103,49.4398762 69.1413103,50.4572096 C69.2941437,51.0230429 69.898477,51.0685429 69.747977,51.9353762 C69.5916437,52.9107096 69.1343103,52.9702096 68.8753103,53.1930429 C68.6221437,53.4147096 68.3048103,53.5827096 68.144977,53.9922096 C67.990977,54.4063762 67.9606437,54.8427096 68.0493103,55.2172096 C68.2126437,55.9160429 69.2393103,55.3618762 69.9253103,55.0503762 C70.3768103,54.8438762 71.812977,53.6352096 72.1746437,53.2268762 C73.0928103,52.2002096 73.5163103,50.2250429 72.792977,49.0828762" id="Fill-407" fill="#B29177" sketch:type="MSShapeGroup"></path>
                <path d="M48.2630165,23 C41.1008499,23 35.8590165,25.072 32.6845165,29.1646667 C28.2558499,34.8755 28.4226832,43.6056667 30.0571832,49.8695 C30.5553499,51.7851667 30.8155165,56.9453333 31.1561832,58.8435 C32.7055165,67.3146667 42.0831832,71.8285 48.2630165,71.8285 L48.4310165,71.8215 L48.4310165,23.0058333 L48.2630165,23" id="Fill-408" fill="#D4B591" sketch:type="MSShapeGroup"></path>
                <path d="M63.3766667,29.1693333 C60.2266667,25.1035 55.0466667,23.0315 48,23 L48,71.8156667 C55.0501667,71.7375 63.4863333,66.7943333 64.933,58.8376667 C65.2771667,56.9418333 65.5338333,51.7793333 66.032,49.8636667 C67.663,43.6173333 67.824,34.9 63.3766667,29.1693333" id="Fill-409" fill="#E9CAA3" sketch:type="MSShapeGroup"></path>
                <path d="M54.024,28.5047222 L53.9411667,28.3997222 L54.0298333,28.4872222 L54.024,28.5047222 L54.024,28.5047222 Z M71.8541667,36.3447222 C71.7316667,36.0343889 71.5648333,35.7322222 71.3933333,35.4627222 C70.9768333,32.3640555 68.78,26.1643889 66.6263333,23.0528889 C64.384,19.8165555 58.8901667,16.9523889 51.833,16.0995555 C44.7688333,15.2408889 38.6193333,20.2190555 38.6193333,20.2190555 C38.6193333,20.2190555 37.5273333,18.6020555 36.5916667,18.1213889 C35.6571667,17.6500555 32.975,18.2170555 32.975,18.2170555 C32.975,18.2170555 34.7938333,18.7245555 35.152,19.2005555 C35.8275,20.0988889 35.5136667,20.9505555 35.5136667,20.9505555 C35.5136667,20.9505555 33.3845,20.0358889 32.4488333,20.0090555 C30.7431667,19.9612222 28.8216667,22.1230555 28.8216667,22.1230555 C28.8216667,22.1230555 30.4223333,20.9983889 31.9576667,21.0438889 C32.4558333,21.0555555 33.8476667,21.7135555 33.8476667,21.7135555 C33.8476667,21.7135555 31.316,21.9783889 26.5793333,27.1525555 C23,31.0527222 23,36.2105555 23,36.2105555 L25.996,34.4967222 C25.996,34.4967222 25.2178333,35.4020555 24.8386667,36.3447222 C22.6278333,41.8222222 25.6541667,47.3148889 25.6541667,47.3148889 C25.6541667,47.3148889 26.6411667,47.4128889 27.5418333,49.5233889 C28.7598333,52.3782222 29.5216667,55.9132222 29.5216667,55.9132222 L30.5786667,55.9132222 C30.5786667,55.9132222 28.306,47.0978889 29.839,42.2970555 C30.2613333,40.9775555 31.4011667,38.2662222 32.9878333,38.1728889 C32.9878333,38.1728889 34.039,37.2558889 34.5033333,35.4440555 C34.9711667,33.6298889 37.4036667,30.5942222 38.715,30.0225555 C40.0216667,29.4508889 40.7695,30.3095555 40.7695,30.3095555 C40.7695,30.3095555 42.831,28.6902222 46.5666667,28.0240555 C50.307,27.3602222 52.3615,31.3560555 53.1805,33.4525555 C53.996,35.5443889 53.5771667,36.5932222 53.5771667,36.5932222 C53.5771667,36.5932222 55.1696667,34.0242222 54.983,31.4493889 C54.9246667,30.6268889 54.7508333,29.9910555 54.549,29.4917222 C55.0401667,29.7390555 57.167,30.3282222 57.6033333,35.8313889 C57.8086667,38.4365555 55.4496667,40.2063889 55.4496667,40.2063889 C55.4496667,40.2063889 60.702,38.0422222 59.6135,31.3537222 C60.7393333,32.5530555 61.8861667,34.2528889 62.193,35.4440555 C62.6573333,37.2558889 66.5925,41.4710555 66.855,42.2970555 C68.3845,47.0978889 66.1176667,55.9132222 66.1176667,55.9132222 L67.1723333,55.9132222 C67.1723333,55.9132222 67.933,52.3782222 69.1556667,49.5233889 C70.0563333,47.4128889 71.0421667,47.3148889 71.0421667,47.3148889 C71.0421667,47.3148889 74.0661667,41.8222222 71.8541667,36.3447222 L71.8541667,36.3447222 Z" id="Fill-410" fill="#0B0B0C" sketch:type="MSShapeGroup"></path>
                <path d="M74.4888429,39.8185355 C72.9931762,34.1287022 69.1035095,25.8780355 66.3560095,22.0490355 C65.7038429,21.1413689 64.9910095,20.4635355 64.5336762,20.0738689 C64.8370095,19.7670355 65.0831762,19.4007022 65.1310095,19.0052022 C65.2535095,17.8723689 65.8100095,15.5483689 64.1825095,16.3673689 C62.6495095,17.1362022 64.5231762,17.5620355 63.6260095,18.8220355 C62.6938429,17.5375355 59.7118429,14.9008689 50.1906762,11.3728689 C36.4718429,6.28736885 32.9193429,10.6192022 28.3845095,12.8790355 C23.8520095,15.1377022 23.6606762,17.3963689 24.2276762,18.8617022 C24.7935095,20.3247022 25.3640095,24.9283689 26.3090095,26.1487022 C27.2505095,27.3643689 31.4073429,25.6820355 39.5366762,32.8150355 C47.6578429,39.9480355 64.2875095,43.3803689 69.1991762,50.0350355 C74.1131762,56.6885355 76.3788429,54.4905355 76.3788429,54.4905355 C76.3788429,54.4905355 76.9458429,53.1757022 77.5116762,51.6672022 C78.0786762,50.1587022 76.5701762,47.7122022 74.4888429,39.8185355" id="Fill-411" fill="#CF5E30" sketch:type="MSShapeGroup"></path>
                <path d="M69.35,99.7825866 C69.35,99.7825866 69.1796667,99.8550577 68.8448333,100 L27.518,100 C27.1703333,99.8550577 27,99.7825866 27,99.7825866 C27,99.1683639 27.014,98.5541412 27.0268333,97.9719959 C27.0851667,96.6259335 27.1971667,95.3523422 27.3616667,94.1821113 C27.4911667,93.1865241 27.6486667,92.2681602 27.8668333,91.387814 C27.938,90.9945689 28.0371667,90.6143924 28.1363333,90.2318398 C28.2833333,89.7197895 28.4268333,89.224372 28.5866667,88.7432111 C28.7126667,88.34759 28.8561667,87.9709776 29.0031667,87.6003055 C29.4231667,86.5346232 29.8968333,85.5687373 30.3985,84.7204684 C31.3236667,83.1284793 32.3748333,81.8845893 33.4295,80.934148 C34.3056667,80.1120163 35.1701667,79.5132383 35.9751667,79.046334 L36.037,79.0166327 L36.0638333,79 C36.1665,79.2483028 36.7393333,79.9243041 37.7496667,80.934148 C38.732,81.9107264 40.1413333,83.1985743 41.9403333,84.7204684 C42.0593333,84.8071962 42.1865,84.9260014 42.3195,85.0293618 C46.0493333,88.1004752 50.3146667,88.1004752 54.034,85.0293618 C54.1646667,84.9260014 54.2941667,84.8071962 54.4096667,84.7204684 C56.225,83.1985743 57.6378333,81.9107264 58.6143333,80.934148 C59.6246667,79.9243041 60.187,79.2483028 60.3001667,79 L60.3141667,79.0166327 L60.3888333,79.046334 C61.1938333,79.5132383 62.0606667,80.1120163 62.9415,80.934148 C63.9926667,81.8845893 65.0298333,83.1284793 65.9655,84.7204684 C66.4695,85.5687373 66.9443333,86.5346232 67.3503333,87.6003055 C67.4938333,87.9709776 67.6373333,88.34759 67.7668333,88.7432111 C67.9371667,89.224372 68.0806667,89.7197895 68.2276667,90.2318398 C68.3303333,90.6143924 68.4155,90.9945689 68.5041667,91.387814 C68.7025,92.2681602 68.8623333,93.1865241 68.9918333,94.1821113 C69.1528333,95.3523422 69.2648333,96.6259335 69.3231667,97.9719959 C69.336,98.5541412 69.35,99.1683639 69.35,99.7825866" id="Fill-412" fill="#FFF7F1" sketch:type="MSShapeGroup"></path>
                <path d="M42.2723333,92.1303333 C42.2723333,93.3063333 41.3168333,94.2583333 40.1361667,94.2583333 C38.9555,94.2583333 38,93.3063333 38,92.1303333 C38,90.9531667 38.9555,90 40.1361667,90 C41.3168333,90 42.2723333,90.9531667 42.2723333,92.1303333" id="Fill-413" fill="#CF5E30" sketch:type="MSShapeGroup"></path>
                <path d="M48.2551667,95.1235 C48.2551667,95.7441667 47.75,96.2481667 47.1293333,96.2481667 C46.5051667,96.2481667 46,95.7441667 46,95.1235 C46,94.504 46.5051667,94 47.1293333,94 C47.75,94 48.2551667,94.504 48.2551667,95.1235" id="Fill-414" fill="#9CA73E" sketch:type="MSShapeGroup"></path>
                <path d="M57.3398333,92.6635 C57.3398333,94.1335 56.1463333,95.3246667 54.6681667,95.3246667 C53.1946667,95.3246667 52,94.1335 52,92.6635 C52,91.1911667 53.1946667,90 54.6681667,90 C56.1463333,90 57.3398333,91.1911667 57.3398333,92.6635" id="Fill-415" fill="#34565E" sketch:type="MSShapeGroup"></path>
                <path d="M63.5423333,94.77 C63.5423333,95.1946667 63.197,95.5388333 62.7711667,95.5388333 C62.3441667,95.5388333 62,95.1946667 62,94.77 C62,94.3441667 62.3441667,94 62.7711667,94 C63.197,94 63.5423333,94.3441667 63.5423333,94.77" id="Fill-416" fill="#9CA73E" sketch:type="MSShapeGroup"></path>
                <path d="M61.659,86.8318333 C61.659,87.2891667 61.2903333,87.6601667 60.8295,87.6601667 C60.3686667,87.6601667 60,87.2891667 60,86.8318333 C60,86.3721667 60.3686667,86 60.8295,86 C61.2903333,86 61.659,86.3721667 61.659,86.8318333" id="Fill-417" fill="#7A5E8E" sketch:type="MSShapeGroup"></path>
                <path d="M36.1361667,85.064 C36.1361667,85.6508333 35.659,86.128 35.0686667,86.128 C34.4783333,86.128 34,85.6508333 34,85.064 C34,84.4736667 34.4783333,84 35.0686667,84 C35.659,84 36.1361667,84.4736667 36.1361667,85.064" id="Fill-418" fill="#9CA73E" sketch:type="MSShapeGroup"></path>
                <path d="M33.849,93.4198333 C33.849,94.2038333 33.2108333,94.8396667 32.4268333,94.8396667 C31.6381667,94.8396667 31,94.2038333 31,93.4198333 C31,92.6358333 31.6381667,92 32.4268333,92 C33.2108333,92 33.849,92.6358333 33.849,93.4198333" id="Fill-419" fill="#9CA73E" sketch:type="MSShapeGroup"></path>
            </g>
        </g>
    </g>
</svg>