<?xml version="1.0" encoding="UTF-8" standalone="no"?>
<svg width="100px" height="100px" viewBox="0 0 100 100" version="1.1" xmlns="http://www.w3.org/2000/svg" xmlns:xlink="http://www.w3.org/1999/xlink" xmlns:sketch="http://www.bohemiancoding.com/sketch/ns">
    <!-- Generator: Sketch 3.4.4 (17249) - http://www.bohemiancoding.com/sketch -->
    <title>avatar4</title>
    <desc>Created with Sketch.</desc>
    <defs></defs>
    <g id="Page-1" stroke="none" stroke-width="1" fill="none" fill-rule="evenodd" sketch:type="MSPage">
        <g id="Artboard-2" sketch:type="MSArtboardGroup">
            <g id="avatar4" sketch:type="MSLayerGroup">
                <path d="M0,0 L100,0 L100,100 L0,100 L0,0 Z" id="Fill-40" fill="#424242" sketch:type="MSShapeGroup"></path>
                <path d="M53.2596235,54 C52.4073093,56.7657069 51.431796,59.9262041 49.6006085,63.089964 C47.768301,66.2504611 42.2030591,70.3169094 42.0093005,74.6519892 C41.5937833,83.9572933 55.2117701,88.3750288 60.7053325,89.9574525 C66.2000149,91.5377011 68.0312023,91.6986624 68.6438382,93.9890984 C69.253114,96.2817096 68.7547174,100.108891 68.7547174,100.108891 C68.7547174,100.108891 73.3814057,97.6574938 74.6850768,95.782512 C77.4895376,91.7541288 74.4229986,89.0134362 74.4229986,89.0134362 C74.4229986,89.0134362 73.2828464,89.9574525 74.6257172,92.0945402 C75.968588,94.2261901 75.968588,96.124011 75.4780314,96.6775874 C74.9897147,97.2300762 73.2828464,98.9680234 73.2828464,98.9680234 C73.2828464,98.9680234 81.7712683,96.6416974 80.1192796,89.9574525 C79.8348016,88.8154972 79.0620068,89.6518435 80.1192796,89.9574525 C82.4791035,90.6404505 82.0367065,94.4099905 82.0367065,94.4099905 C82.0367065,94.4099905 87.7923471,87.1993586 76.1332269,83.1165967 C75.0221945,82.7272443 69.0179156,81.2894682 68.3985598,76.4823803 C68.0547222,73.8189056 70.0662284,73.5883394 70.4358259,70.3310479 C70.9107026,66.1177768 64.6768253,67.0063267 62.2789217,63.0344976 C61.8230848,62.2797195 64.0798694,61.8501268 62.2789217,59.8000452 C60.1005366,57.3247212 59.3008621,57.5161347 56.1917634,56.0522568 C53.0759447,54.5916416 53.2596235,54 53.2596235,54" id="Fill-525" fill="#CC8B3C" sketch:type="MSShapeGroup"></path>
                <path d="M51.7008183,64.2610183 L51.7008183,100.226084 L31.4950366,100.226084 C31.1702388,100.072736 31,100.019444 31,100.019444 C31,94.6696558 31.9463935,90.6804254 33.3228641,87.7320057 C35.5897286,82.8683638 39.0068252,80.7823922 41.2176901,79.9025428 C42.4888814,79.3826813 43.3669554,79.2880621 43.3669554,79.2880621 L43.4688747,79.2880621 L43.7376728,79.2336833 C44.7557458,78.9476507 45.4501411,77.5066119 45.9194179,75.4217279 C46.0045373,75.0497767 46.0762168,74.6919641 46.1322164,74.2960862 C46.2464556,73.6370149 46.345015,72.9387908 46.4166945,72.1992388 C46.4592542,71.7729089 46.4984539,71.3357031 46.5443736,70.8832713 C46.7280523,68.6613527 46.784052,66.2599839 46.784052,64 C46.784052,64 49.5067533,64.2610183 51.7008183,64.2610183" id="Fill-526" fill="#D4B591" sketch:type="MSShapeGroup"></path>
                <path d="M71.7702578,100.019444 C71.7702578,100.019444 71.5876991,100.072736 71.2920211,100.226084 L51,100.226084 L51,64.2610183 L51.0436797,64.2610183 C53.2377447,64.2610183 55.973886,64 55.973886,64 C55.973886,66.2599839 56.0298856,68.6341632 56.2124443,70.8288925 C56.255004,71.2682734 56.3009237,71.7054791 56.3412434,72.1285464 C56.4252429,72.8811493 56.5114823,73.595687 56.6223615,74.2558459 L56.6223615,74.2841229 C56.6682812,74.5832064 56.7265208,74.8605384 56.7791604,75.1324325 C57.2058775,77.1487993 57.8285933,78.6289908 58.7357871,79.1227505 L58.9485856,79.2054063 C59.0919446,79.2586976 59.2498635,79.2880621 59.3999425,79.2880621 C59.3999425,79.2880621 65.6517397,80.0145632 69.261475,87.3491788 C70.7353849,90.340014 71.7702578,94.4238636 71.7702578,100.019444" id="Fill-527" fill="#E9CAA3" sketch:type="MSShapeGroup"></path>
                <path d="M45,73.4671937 L45,73.4671937 C45.1030393,72.873377 45.1903987,72.2458454 45.2620782,71.5954746 C45.1926387,72.2512832 45.1030393,72.8755521 45,73.4671937 M56.0218446,72.2567211 C55.9826448,71.9467618 55.9456851,71.6281019 55.9098453,71.301829 C55.9456851,71.6281019 55.9826448,71.9456743 56.0218446,72.2567211 M55.9098453,71.301829 C55.8695256,70.8787618 55.8236059,70.441556 55.7810462,70.0021752 L55.7810462,70 C55.8236059,70.4382933 55.8695256,70.8787618 55.9098453,71.301829 M45.295678,71.2637638 C45.3315177,70.8646233 45.3707175,70.4643951 45.4087972,70.0532912 C45.4099172,70.0543788 45.4121572,70.0543788 45.4132772,70.0543788 C45.4132772,70.0554664 45.4121572,70.056554 45.4121572,70.056554 C45.3707175,70.4709206 45.3337577,70.8722363 45.295678,71.2637638" id="Fill-528" fill="#B98E62" sketch:type="MSShapeGroup"></path>
                <path d="M51.5686019,76.3470961 C48.3531039,76.3329577 46.4827167,74.0751489 46,73.4128149 C46.1030393,72.8211733 46.1926387,72.1969044 46.2620782,71.5410958 C46.2699182,71.4704034 46.2777581,71.3997109 46.2844781,71.3290184 C46.287838,71.2898657 46.292318,71.2496253 46.295678,71.209385 C46.3337577,70.8178575 46.3707175,70.4165418 46.4121572,70.0021752 C46.4121572,70.0021752 46.4132772,70.0010876 46.4132772,70 C47.9846264,70.3839145 49.6836548,70.6199186 51.5103623,70.6427577 L51.5686019,70.6427577 L51.5686019,76.3470961" id="Fill-529" fill="#BD9B7F" sketch:type="MSShapeGroup"></path>
                <path d="M51.0268798,76.401475 L51,76.401475 L51,70.6971365 C52.8715072,70.6742974 54.5974154,70.4252424 56.2124443,70 L56.2124443,70.0021752 C56.255004,70.441556 56.3009237,70.8787618 56.3412434,71.301829 C56.3770832,71.6281019 56.4140429,71.9467618 56.4532427,72.2567211 C56.5047623,72.6645623 56.5596419,73.058265 56.6223615,73.4400043 L56.6223615,73.4541428 C56.1273249,74.2197966 54.4148566,76.401475 51.0268798,76.401475" id="Fill-530" fill="#C2A184" sketch:type="MSShapeGroup"></path>
                <path d="M88.1573919,50.3122937 C88.1573919,56.1971699 69.5498393,70.0017777 49.578136,70.0017777 C29.6075526,70.0017777 11,58.0993411 11,52.2155525 C11,46.3328515 28.9333173,44 48.9039006,44 C68.8744839,44 88.1573919,44.4285051 88.1573919,50.3122937" id="Fill-531" fill="#451C1E" sketch:type="MSShapeGroup"></path>
                <path d="M50.6625559,26.0000588 C29.5775802,25.9641688 29.4532611,42.3626465 30.3906947,53.053523 C28.9492645,50.5455717 24.6697738,51.4743619 25.0203314,55.4951321 C25.3585691,59.34189 31.3998078,61.0863626 31.3169283,60.6632954 C33.0439565,69.3736951 42.9838885,74.2101476 50.6625559,74.9018462 L50.8260748,74.9061965 L50.8260748,26.0033215 L50.6625559,26.0000588" id="Fill-532" fill="#C39D7F" sketch:type="MSShapeGroup"></path>
                <path d="M26.3551602,52.9831818 C27.4169129,51.4279475 29.0453818,52.0989822 29.448579,52.4426563 C29.8741761,52.8135199 30.2079338,53.306192 29.9458556,54.2262817 C29.7980166,54.7407054 29.2055407,54.7820333 29.3533797,55.5672635 C29.5135386,56.4503755 29.9559355,56.5069295 30.2079338,56.7070436 C30.4565721,56.9071576 30.77129,57.0605059 30.9292089,57.4346322 C31.0826478,57.8054958 31.1117676,58.2013736 31.0232882,58.5428726 C30.8631293,59.1801924 29.8540162,58.6722942 29.1797809,58.3916995 C28.7340239,58.2046363 27.3183536,57.111622 26.964436,56.7385833 C26.0673222,55.8076178 25.650685,54.0196422 26.3551602,52.9831818" id="Fill-533" fill="#B29177" sketch:type="MSShapeGroup"></path>
                <path d="M51.1612789,26.0000588 C72.2484946,25.9641688 72.3694537,42.3626465 71.4297802,53.053523 C72.8779303,50.5455717 77.156301,51.4743619 76.8057434,55.4951321 C76.4686257,59.34189 70.4240271,61.0863626 70.5091465,60.6632954 C68.7832383,69.3736951 58.8466663,74.2101476 51.1612789,74.9018462 L51,74.9061965 L51,26.0033215 L51.1612789,26.0000588" id="Fill-534" fill="#D1AE8F" sketch:type="MSShapeGroup"></path>
                <path d="M75.7153529,52.9831818 C74.6569601,51.4279475 73.0262513,52.0989822 72.6230541,52.4426563 C72.196337,52.8135199 71.8659392,53.306192 72.1212975,54.2262817 C72.2724965,54.7407054 72.8649724,54.7820333 72.7204934,55.5672635 C72.5636945,56.4503755 72.1179375,56.5069295 71.8659392,56.7070436 C71.613941,56.9071576 71.2992231,57.0605059 71.1413042,57.4346322 C70.9912252,57.8054958 70.9621054,58.2013736 71.0472249,58.5428726 C71.2107437,59.1801924 72.2198568,58.6722942 72.8907322,58.3916995 C73.3398492,58.2046363 74.7487995,57.111622 75.1060771,56.7385833 C76.0065509,55.8076178 76.4198281,54.0196422 75.7153529,52.9831818" id="Fill-535" fill="#B29177" sketch:type="MSShapeGroup"></path>
                <path d="M50.9404803,30 C43.9002084,30 38.7426437,31.8804197 35.6245851,35.5879678 C31.2666949,40.7680944 31.4313338,48.6823882 33.0430028,54.3649752 C33.5313194,56.098572 33.7833177,60.779501 34.1237954,62.4967843 C35.643625,70.1761616 44.8656418,74.2676242 50.9404803,74.2676242 L51.1039991,74.2632738 L51.1039991,30.0043503 L50.9404803,30" id="Fill-536" fill="#D4B591" sketch:type="MSShapeGroup"></path>
                <path d="M66.1187765,35.5912305 C63.0231177,31.9032588 57.9282726,30.028277 51,30 L51,74.2589235 C57.9349925,74.1893186 66.2240558,69.705241 67.652046,62.492434 C67.9858037,60.7751507 68.241162,56.0942217 68.7328386,54.3606249 C70.3355477,48.6943516 70.4923466,40.7909335 66.1187765,35.5912305" id="Fill-537" fill="#E9CAA3" sketch:type="MSShapeGroup"></path>
                <path d="M55.014512,67.2175153 C55.014512,67.2175153 53.4252429,68.8619309 51.4596563,68.8619309 C49.5007897,68.8619309 48,67.249055 48,67.249055 C48,67.249055 49.5007897,67 51.4596563,67 C53.4252429,67 55.014512,67.2175153 55.014512,67.2175153" id="Fill-538" fill="#B16164" sketch:type="MSShapeGroup"></path>
                <path d="M52.5606088,67 C52.0073326,67 51.5649356,67.3371487 51.5514957,67.7493402 C51.5414158,67.3371487 51.0990188,67 50.5491026,67 C49.9924664,67 48,67.7645662 48,67.7645662 C48,67.7645662 49.9398267,67.9592424 50.4998229,67.9592424 C51.0497391,67.9592424 51.5414158,68.1702323 51.5514957,67.7732669 C51.5615756,68.1756701 51.9614129,68.0201467 52.5113291,68.0201467 C53.0713253,68.0201467 55.1063514,67.7645662 55.1063514,67.7645662 C55.1063514,67.7645662 53.117245,67 52.5606088,67" id="Fill-539" fill="#BF6868" sketch:type="MSShapeGroup"></path>
                <path d="M47.6676301,55.2654748 C47.6676301,57.7201349 43.9268557,60.1563061 39.5297658,60.2607135 C39.4390464,60.2683265 39.3337671,60.2683265 39.2318478,60.2683265 C38.8622504,60.2683265 38.5016128,60.2607135 38.1768151,60.2498377 C32.8434116,60.0105709 32.0997367,57.9082856 32.0997367,55.5362814 C32.0997367,53.0272425 30.5407073,51 39.7504043,51 C41.1492747,51 42.2916669,51.0413279 43.2459004,51.1218086 C44.5361315,51.2229532 45.4567652,51.4013157 46.1086008,51.6405825 C48.1469868,52.3649084 47.6676301,53.660212 47.6676301,55.2654748" id="Fill-540" fill="#2B2B2A" sketch:type="MSShapeGroup"></path>
                <path d="M69.6176642,55.5362814 C69.6176642,58.0540208 68.76871,60.2683265 62.485553,60.2683265 C62.2167549,60.2683265 61.9479567,60.2607135 61.6993184,60.2389619 C61.2210817,60.218298 60.7630048,60.1563061 60.3172479,60.0714752 C56.7791921,59.4395932 54.0464108,57.3568843 54.0464108,55.2654748 C54.0464108,52.7586111 52.9028986,51 61.9681166,51 C63.3177073,51 64.4309797,51.0413279 65.3549734,51.1218086 C67.8189565,51.3393239 68.919909,51.8254705 69.3791059,52.4997679 C69.9581419,53.3089248 69.6176642,54.3627864 69.6176642,55.5362814" id="Fill-541" fill="#2B2B2A" sketch:type="MSShapeGroup"></path>
                <path d="M46.7849789,55.0938871 C45.1856298,60.1587306 37.4543227,59.5649139 35.5872955,59.1668609 C34.7618611,58.9928487 32.3594776,58.3359525 31.9764402,54.2162129 C31.707642,51.3547993 33.6474688,51.1807871 36.39257,50.9371699 C38.6303147,50.739231 40.6127011,50.8251496 41.9555719,50.9469581 C43.2984427,51.0622412 46.4310613,51.5255488 46.7390592,52.3096914 C47.050417,53.0960092 47.1321765,53.9867343 46.7849789,55.0938871 L46.7849789,55.0938871 Z M48.9465641,51.2764938 C48.4033678,51.1949255 47.1030567,50.8784408 45.7725058,50.6272106 C44.6032338,50.405345 43.403722,50.248734 42.7485265,50.1823919 C41.1502974,50.027956 37.0813653,49.9170232 34.5524226,50.0812473 C31.5542031,50.2791862 29.2604588,50.5162778 29.1428596,50.6859398 C29.0611002,50.8023104 28.8774214,52.3499317 29.1238197,52.5152434 C29.3623781,52.6849053 30.2079723,53.0111782 30.4140509,53.5614919 C30.6201295,54.1063677 31.4500438,58.0433944 33.3069911,59.125533 C36.3600902,60.8939323 46.6237,60.9711502 48.3932878,54.5120337 C48.6385662,53.6289216 48.956644,53.114498 49.5099202,52.9709379 C49.7529585,52.9045957 50.129276,52.8567424 50.4999934,52.8632678 L50.4999934,51.3722005 C50.0015968,51.3928645 49.54352,51.3722005 48.9465641,51.2764938 L48.9465641,51.2764938 Z" id="Fill-542" fill="#21201F" sketch:type="MSShapeGroup"></path>
                <path d="M54.7642942,52.3096914 C55.0722921,51.5255488 58.2037907,51.0622412 59.5477815,50.9469581 C60.8906523,50.8251496 62.8763987,50.739231 65.1107834,50.9371699 C67.8558846,51.1807871 69.7979513,51.3547993 69.5269132,54.2162129 C69.1393958,58.3359525 66.7414923,58.9928487 65.9160579,59.1668609 C64.0490307,59.5649139 56.3177236,60.1587306 54.7183745,55.0938871 C54.3711769,53.9867343 54.4529364,53.0960092 54.7642942,52.3096914 L54.7642942,52.3096914 Z M51,51.3722005 L51,52.8632678 C51.3740774,52.8567424 51.7436749,52.9045957 51.9923132,52.9709379 C52.5467094,53.114498 52.8647872,53.6289216 53.1067056,54.5120337 C54.8785335,60.9711502 65.1399032,60.8939323 68.1997223,59.125533 C70.0510696,58.0433944 70.8832239,54.1063677 71.0893025,53.5614919 C71.2953811,53.0111782 72.1409753,52.6849053 72.3795337,52.5152434 C72.622572,52.3499317 72.4422532,50.8023104 72.3571338,50.6859398 C72.2462546,50.5162778 69.9457903,50.2791862 66.9509308,50.0812473 C64.4163882,49.9170232 60.356416,50.027956 58.7548269,50.1823919 C58.0996314,50.248734 56.9001196,50.405345 55.7274876,50.6272106 C54.4002967,50.8784408 53.0999856,51.1949255 52.5567893,51.2764938 C51.9531135,51.3722005 51.5017566,51.3928645 51,51.3722005 L51,51.3722005 Z" id="Fill-543" fill="#21201F" sketch:type="MSShapeGroup"></path>
                <path d="M72.9339995,36.1125738 C72.6584813,35.2664394 72.3695233,34.4812092 72.0816853,33.7275187 L72.0816853,33.4012458 C72.0816853,30.2124716 69.3959437,26.0764184 65.1231729,22.0621737 C60.8481622,18.0457539 58.1579406,18.8712244 54.6198848,18.9865075 L54.594125,19.0550248 C53.0406956,18.7059128 44.6810728,16.9668781 39.7139068,18.8908008 C34.2169845,21.0181003 29.7190952,24.6680069 26.543917,34.4746837 C23.3698587,44.280273 25.9738409,52.312025 26.5898367,55.740066 C28.5397433,66.5897286 37.8995193,73.4599491 37.8995193,73.4599491 C37.8995193,73.4599491 35.5340954,70.5615578 34.4790627,67.6707796 C33.6592283,65.4314597 32.4350767,61.5803515 32.4350767,55.9097279 C32.4350767,50.2401919 37.7752001,43.2177108 37.7752001,43.2177108 C37.7752001,43.2177108 35.311217,47.6213078 34.8262603,52.4664609 C34.3379436,57.3094388 36.919526,61.0550521 36.919526,61.0550521 C36.919526,61.0550521 33.6502683,54.7645099 38.8750326,50.0694424 C40.5359812,48.5729372 41.9292517,47.0133526 43.049244,45.589715 L43.045884,45.6016783 C41.735493,49.3135768 44.369715,52.4305709 44.369715,52.4305709 C44.369715,52.4305709 44.3204353,47.6702487 47.0464966,46.051935 C53.6891712,42.1138207 54.7475639,40.4846312 55.6816375,37.3132582 C55.8093167,36.8782277 55.8821162,36.4823498 55.9302758,36.0929975 L62.0039943,45.2677924 C62.2862323,45.6658454 62.7510292,46.3379676 63.2886255,47.2134666 C64.8644547,49.7551328 67.0428398,53.9227257 67.0428398,57.5443553 C67.0428398,63.2149789 65.8175682,67.0682623 64.9988538,69.3086698 C63.943821,72.1983604 61.5783972,75.0978392 61.5783972,75.0978392 C61.5783972,75.0978392 70.9348131,68.2265312 72.8880798,57.3736058 C73.5007156,53.94774 76.1080577,45.9159879 72.9339995,36.1125738" id="Fill-544" fill="#DE9F44" sketch:type="MSShapeGroup"></path>
                <path d="M76.4628724,31.3810765 L26.0408175,31.3810765 C26.0408175,31.3810765 25.9489781,30.285887 26.0408175,29.9367749 C27.8552051,23.1492103 34.585239,15 50.5619297,15 C66.0480637,15 74.2587275,22.9610596 76.4628724,29.9367749 C76.5715116,30.2815367 76.4628724,31.3810765 76.4628724,31.3810765" id="Fill-545" fill="#842A2C" sketch:type="MSShapeGroup"></path>
                <path d="M76.4220549,40.8182291 L26,40.8182291 L26,32.0697642 C26,32.0697642 34.5444215,26 50.5211122,26 C66.0072462,26 76.4220549,32.0697642 76.4220549,32.0697642 L76.4220549,40.8182291" id="Fill-546" fill="#A7585E" sketch:type="MSShapeGroup"></path>
                <path d="M48.5567029,42.6212988 C34.522079,43.0563294 11,49.4980447 11,49.4980447 C11,49.4980447 25.5453404,32.0283042 48.114306,32.0000272 C68.1375289,31.9761005 87.8101943,47.7416087 87.8101943,47.7416087 C87.8101943,47.7416087 57.7820798,42.333091 48.5567029,42.6212988" id="Fill-547" fill="#842A2C" sketch:type="MSShapeGroup"></path>
                <path d="M65.6783231,80.8569924 C63.156707,79.5353156 60.1615089,78.7039934 60.3224852,79.0985578 C61.9561352,81.6130508 61.3485794,83.7181547 61.0785546,87.3285333 C61.0723233,87.4402885 61.0598606,87.5394998 61.0484365,87.6455533 C60.0337664,86.8644069 58.7968451,86.4014209 57.4602224,86.4014209 C54.5533016,86.4014209 52.1168471,88.5726657 51.411667,91.5113724 C51.3150812,91.5090917 51.2236882,91.506811 51.1260639,91.506811 L50.9837816,91.5079514 C50.2754858,88.5703849 47.8390313,86.4014209 44.9352262,86.4014209 C43.5435599,86.4014209 42.258865,86.9054599 41.2171925,87.7504664 C41.2047298,87.6124828 41.1891514,87.4744993 41.180843,87.3285333 C40.906664,83.7181547 40.2991082,81.6130508 41.9337967,79.0985578 C42.0947731,78.7039934 39.1026906,79.5353156 36.5779588,80.8569924 C34.053227,82.1775288 32,83.9815778 32,83.9815778 C32,83.9815778 33.8870579,84.6635128 34.6607828,87.2087955 C35.056473,88.4745947 35.2963796,90.7747001 35.4303534,92.8991901 C35.7034939,97.2154513 37.6809062,99.1506416 37.5656264,100.6046 L64.6937712,100.6046 C64.5753757,99.1506416 66.552788,97.2154513 66.8259285,92.8991901 C66.963018,90.7747001 67.199809,88.4745947 67.5944606,87.2087955 C68.369224,84.6635128 70.2593976,83.9815778 70.2593976,83.9815778 C70.2593976,83.9815778 68.2051321,82.1775288 65.6783231,80.8569924" id="Fill-548" fill="#842A2C" sketch:type="MSShapeGroup"></path>
            </g>
        </g>
    </g>
</svg>