<?xml version="1.0" encoding="UTF-8" standalone="no"?>
<svg width="100px" height="100px" viewBox="0 0 100 100" version="1.1" xmlns="http://www.w3.org/2000/svg" xmlns:xlink="http://www.w3.org/1999/xlink" xmlns:sketch="http://www.bohemiancoding.com/sketch/ns">
    <!-- Generator: Sketch 3.4.4 (17249) - http://www.bohemiancoding.com/sketch -->
    <title>avatar1</title>
    <desc>Created with Sketch.</desc>
    <defs></defs>
    <g id="Page-1" stroke="none" stroke-width="1" fill="none" fill-rule="evenodd" sketch:type="MSPage">
        <g id="Artboard-1" sketch:type="MSArtboardGroup">
            <g id="avatar1" sketch:type="MSLayerGroup">
                <path d="M0,0 L100,0 L100,100 L0,100 L0,0 Z" id="Fill-25" fill="#607D8B" sketch:type="MSShapeGroup"></path>
                <g id="Group" transform="translate(22.000000, 10.000000)" sketch:type="MSShapeGroup">
                    <path d="M26.6,53.049375 L26.6,89.811 L6.63488,89.811 C6.30784,89.670375 6.14432,89.60175 6.14432,89.60175 C6.14432,69.883875 18.36352,68.407875 18.36352,68.407875 C19.58544,68.407875 20.36832,66.84075 20.88576,64.46025 C20.972,64.09575 21.03696,63.7155 21.09632,63.307125 C21.21056,62.6355 21.30576,61.921125 21.37408,61.178625 C21.41664,60.732 21.4592,60.282 21.50176,59.819625 C21.68544,57.564 21.73808,55.1115 21.73808,52.785 C21.73808,52.785 24.42832,53.049375 26.6,53.049375" id="Fill-1540" fill="#D4B591"></path>
                    <path d="M47.12512,89.60175 C47.12512,89.60175 46.9448,89.670375 46.64912,89.811 L26.6,89.811 L26.6,53.049375 L26.6392,53.049375 C28.81088,53.049375 31.51344,52.785 31.51344,52.785 C31.51344,55.098 31.56944,57.520125 31.74976,59.7645 C31.79232,60.213375 31.83488,60.66 31.87408,61.0965 C31.9592,61.864875 32.04432,62.595 32.15632,63.28125 L32.15632,63.297 C32.19888,63.604125 32.25488,63.8865 32.31312,64.16325 C32.8272,66.702375 33.64368,68.407875 34.90144,68.407875 C34.90144,68.407875 47.12512,69.883875 47.12512,89.60175" id="Fill-1541" fill="#E9CAA3"></path>
                    <path d="M26.6,66.3075 C23.42256,66.290625 21.57456,63.981 21.09632,63.307125 C21.21056,62.6355 21.30576,61.921125 21.37408,61.178625 C21.41664,60.732 21.4592,60.282 21.50176,59.819625 C23.0552,60.213375 24.73968,60.45075 26.544,60.476625 L26.6,60.476625 L26.6,66.3075" id="Fill-1542" fill="#BD9B7F"></path>
                    <path d="M26.62576,66.3075 L26.6,66.3075 L26.6,60.476625 C28.448,60.45075 30.15376,60.199875 31.74976,59.7645 C31.79232,60.213375 31.83488,60.66 31.87408,61.0965 C31.9592,61.864875 32.04432,62.595 32.15632,63.28125 L32.15632,63.297 C31.66464,64.08225 29.97456,66.3075 26.62576,66.3075" id="Fill-1543" fill="#C2A184"></path>
                    <path d="M35.3752,68.511375 C35.39536,68.572125 34.74576,68.301 34.608,68.054625 C34.21824,67.41225 33.74672,66.78225 33.17664,66.11175 L33.04224,65.968875 L32.8328,67.172625 L26.59552,70.3755 L20.44896,67.39425 L20.14432,65.968875 L20.0592,66.04875 C19.2304,67.001625 17.80912,68.572125 17.82144,68.511375 C15.51536,69.046875 6.11296,72.293625 6.11296,89.60175 C6.11296,89.60175 6.2832,89.67825 6.59792,89.811 L46.60544,89.811 C46.9168,89.67825 47.08704,89.60175 47.08704,89.60175 C47.08704,72.293625 37.688,69.046875 35.3752,68.511375" id="Fill-1544" fill="#752726"></path>
                    <path d="M34.24848,66.852 C33.94608,66.07575 33.21248,65.34675 32.9504,64.726875 C32.50464,63.69975 32.0992,62.789625 32.0992,62.789625 C32.004,63.772875 30.48752,68.133375 30.48752,68.133375 C30.48752,68.133375 25.73648,70.41375 26.48352,70.5735 C27.2272,70.73775 30.7496,75.182625 31.75872,76.365 C32.77344,77.5395 32.6032,78.633 32.86528,77.04225 C33.13072,75.450375 35.05712,68.936625 34.24848,66.852" id="Fill-1545" fill="#FFFDFC"></path>
                    <path d="M22.72256,68.133375 C22.72256,68.133375 21.20944,63.772875 21.11088,62.789625 C21.11088,62.789625 20.70432,63.69975 20.26192,64.726875 C19.99648,65.34675 19.26288,66.07575 18.95824,66.852 C18.15296,68.936625 20.0816,75.450375 20.34368,77.04225 C20.60912,78.633 20.44,77.5395 21.44576,76.365 C22.46048,75.182625 25.73312,70.73775 26.48352,70.5735 C27.22384,70.41375 22.72256,68.133375 22.72256,68.133375" id="Fill-1546" fill="#FFFDFC"></path>
                    <path d="M26.656,10.89 C5.50816,10.89 5.39056,28.612125 6.328,40.2075 C4.87984,37.456875 0.588,38.309625 0.93856,42.6375 C1.27568,46.81125 7.33936,48.967875 7.25088,48.483 C8.988,58.02525 18.94032,63.538875 26.656,63.538875 L26.81616,63.531 L26.81616,10.89225 L26.656,10.89" id="Fill-1547" fill="#C39D7F"></path>
                    <path d="M2.29152,40.806 C3.33312,39.135375 4.9448,39.855375 5.34464,40.22325 C5.76352,40.624875 6.0984,41.158125 5.83632,42.147 C5.69184,42.699375 5.10832,42.7455 5.24944,43.592625 C5.404,44.541 5.84528,44.60175 6.09504,44.81775 C6.34032,45.03375 6.65504,45.19575 6.80624,45.5985 C6.95632,45.999 6.98544,46.42875 6.90368,46.79325 C6.74016,47.47725 5.74448,46.933875 5.0792,46.627875 C4.64016,46.431 3.24464,45.248625 2.89408,44.850375 C2.00256,43.848 1.5904,41.918625 2.29152,40.806" id="Fill-1548" fill="#B29177"></path>
                    <path d="M26.76016,10.89 C47.908,10.89 48.02896,28.612125 47.08816,40.2075 C48.53968,37.456875 52.83488,38.309625 52.48096,42.6375 C52.14048,46.81125 46.07904,48.967875 46.15856,48.483 C44.42816,58.02525 34.47584,63.538875 26.76016,63.538875 L26.6,63.531 L26.6,10.89225 L26.76016,10.89" id="Fill-1549" fill="#D1AE8F"></path>
                    <path d="M51.128,40.806 C50.08304,39.135375 48.47136,39.855375 48.07152,40.22325 C47.65264,40.624875 47.32112,41.158125 47.57984,42.147 C47.73104,42.699375 48.31344,42.7455 48.17008,43.592625 C48.01216,44.541 47.57312,44.60175 47.32112,44.81775 C47.07584,45.03375 46.76448,45.19575 46.60992,45.5985 C46.45984,45.999 46.43072,46.42875 46.5192,46.79325 C46.676,47.47725 47.67168,46.933875 48.34032,46.627875 C48.77936,46.431 50.17488,45.248625 50.5288,44.850375 C51.4192,43.848 51.82576,41.918625 51.128,40.806" id="Fill-1550" fill="#B29177"></path>
                    <path d="M26.47568,15.883875 C19.51376,15.883875 14.42224,17.904375 11.33664,21.902625 C7.03472,27.47475 7.19936,35.994375 8.78416,42.107625 C9.26912,43.977375 9.51888,49.015125 9.856,50.866875 C11.35232,59.133375 20.47024,63.538875 26.47568,63.538875 L26.63584,63.531 L26.63584,15.8895 L26.47568,15.883875" id="Fill-1551" fill="#D4B591"></path>
                    <path d="M41.5744,21.90825 C38.51792,17.940375 33.4824,15.919875 26.63584,15.8895 L26.63584,63.531 C33.48576,63.459 41.68304,58.633875 43.08864,50.866875 C43.42576,49.015125 43.67104,43.977375 44.15936,42.107625 C45.74192,36.012375 45.89648,27.504 41.5744,21.90825" id="Fill-1552" fill="#E9CAA3"></path>
                    <path d="M9.11904,61.4745 L9.13808,61.533 L9.1448,61.54425 C9.74736,63.2745 10.78,64.758375 11.96832,66.0645 C13.21376,67.3515 14.62608,68.4855 16.21536,69.303375 C15.51424,68.75325 14.86464,68.175 14.24864,67.557375 C13.636,66.938625 13.08272,66.277125 12.56528,65.592 C11.94256,64.782 11.39264,63.919125 10.96592,63.019125 C11.31648,63.18225 11.66704,63.334125 12.02096,63.46575 C12.9976,63.83025 14.02912,64.1205 14.92064,64.431 L16.12576,64.859625 L15.86032,63.649125 C15.59264,62.422875 15.15696,61.302375 14.7336,60.1785 C14.67536,60.024375 14.60592,59.871375 14.54432,59.718375 C14.8848,59.967 15.22528,60.211125 15.5792,60.45075 C16.80448,61.28325 18.1216,61.99425 19.50032,62.577 C20.88016,63.151875 22.31488,63.621 23.8056,63.82575 C24.74528,63.946125 25.6984,63.96975 26.63248,63.88875 C27.56992,63.96975 28.51968,63.946125 29.46272,63.82575 C30.95008,63.621 32.38816,63.151875 33.768,62.577 C35.14672,61.99425 36.46384,61.28325 37.68912,60.45075 C38.03968,60.211125 38.38464,59.967 38.72176,59.718375 C38.6624,59.871375 38.59408,60.024375 38.53472,60.1785 C38.11248,61.302375 37.67904,62.422875 37.41136,63.649125 L37.14256,64.859625 L38.34768,64.431 C39.2392,64.1205 40.26736,63.83025 41.25072,63.46575 C41.59792,63.334125 41.95184,63.18225 42.30576,63.019125 C41.8768,63.919125 41.32576,64.782 40.70304,65.592 C40.18896,66.277125 39.63232,66.938625 39.01968,67.557375 C38.40368,68.175 37.7552,68.75325 37.05744,69.303375 C38.64336,68.4855 40.0512,67.3515 41.30336,66.0645 C42.48944,64.758375 43.52096,63.2745 44.12352,61.54425 L44.13024,61.533 L44.12688,61.533 L44.1504,61.4745 L45.18192,58.449375 L43.00016,61.10775 C42.95088,61.16625 42.85568,61.291125 42.68544,61.403625 C42.52528,61.518375 42.3248,61.62525 42.12208,61.727625 C41.70992,61.927875 41.25072,62.101125 40.78592,62.263125 C40.25168,62.447625 39.71408,62.602875 39.1608,62.7615 C39.75328,60.989625 40.54288,59.212125 41.30672,57.468375 L42.86576,53.91225 L40.09712,56.682 C39.63232,57.151125 39.088,57.62925 38.55152,58.078125 C38.01392,58.530375 37.46288,58.975875 36.8928,59.389875 C35.74704,60.219 34.5576,60.9885 33.3032,61.655625 C32.04432,62.31825 30.71152,62.829 29.32832,63.196875 C28.45472,63.437625 27.54976,63.568125 26.63248,63.62325 C25.7152,63.568125 24.81472,63.437625 23.94,63.196875 C22.5568,62.829 21.22064,62.31825 19.96512,61.655625 C18.71072,60.9885 17.52128,60.219 16.37888,59.389875 C15.8088,58.975875 15.2544,58.530375 14.71792,58.078125 C14.18032,57.62925 13.63936,57.151125 13.16784,56.682 L10.40256,53.91225 L11.96272,57.468375 C12.72544,59.212125 13.51504,60.989625 14.10752,62.7615 C13.55424,62.602875 13.01664,62.447625 12.48016,62.263125 C12.01424,62.101125 11.55952,61.927875 11.14624,61.727625 C10.94016,61.62525 10.74416,61.518375 10.58288,61.403625 C10.40928,61.291125 10.31744,61.16625 10.27152,61.10775 L8.0864,58.449375 L9.11904,61.4745" id="Fill-1553" fill="#35231B"></path>
                    <path d="M10.40256,53.91225 C10.40256,53.91225 24.40144,71.155125 42.86576,53.91225 L37.6208,60.118875 C37.6208,60.118875 24.28384,70.218 12.08704,57.153375 L10.40256,53.91225" id="Fill-1554" fill="#35231B"></path>
                    <path d="M7.63728,40.984875 C7.2184,40.984875 7.67088,38.728125 6.2552,37.175625 C4.84624,35.61975 2.69808,30.384 2.69808,25.156125 C2.69808,19.927125 4.53824,15.2775 9.3352,10.335375 C14.1344,5.391 21.18816,2.989125 21.18816,2.989125 L17.94464,5.954625 C17.94464,5.954625 19.69072,3.546 25.97728,1.62225 C30.93104,0.104625 34.14096,1.79325 34.14096,1.79325 C34.14096,1.79325 30.87504,1.684125 29.88272,3.10725 C29.63408,3.46725 28.71568,4.015125 28.71568,4.015125 C28.71568,4.015125 30.23664,0.6075 37.29264,3.4335 C44.34976,6.25725 44.21872,11.32425 49.12992,12.875625 C54.152,14.470875 55.61024,12.425625 55.61024,12.425625 C55.61024,12.425625 53.43072,16.00875 49.55888,16.016625 C48.8152,16.016625 48.86448,16.002 48.86448,16.002 C48.86448,16.002 50.316,19.8405 50.59376,22.701375 C50.88272,25.6275 49.9912,27.628875 49.71904,33.096375 C49.48384,37.77075 48.20928,35.3745 46.69168,38.818125 C46.18096,39.974625 46.15856,41.274 46.15856,41.274 C45.5952,41.41125 44.12016,38.466 45.18192,33.35625 C45.8696,30.040875 42.4592,17.46675 34.2328,19.915875 C29.20176,21.416625 27.92944,24.471 24.1696,21.7575 C20.92608,19.418625 16.3912,18.075375 13.00432,19.924875 C9.61632,21.776625 7.71008,25.934625 8.2992,32.572125 C9.05296,41.047875 7.63728,40.984875 7.63728,40.984875" id="Fill-1555" fill="#35231B"></path>
                </g>
            </g>
        </g>
    </g>
</svg>