<?xml version="1.0" encoding="UTF-8" standalone="no"?>
<svg width="100px" height="100px" viewBox="0 0 100 100" version="1.1" xmlns="http://www.w3.org/2000/svg" xmlns:xlink="http://www.w3.org/1999/xlink" xmlns:sketch="http://www.bohemiancoding.com/sketch/ns">
    <!-- Generator: Sketch 3.4.4 (17249) - http://www.bohemiancoding.com/sketch -->
    <title>avatar8</title>
    <desc>Created with Sketch.</desc>
    <defs></defs>
    <g id="Page-1" stroke="none" stroke-width="1" fill="none" fill-rule="evenodd" sketch:type="MSPage">
        <g id="Artboard-3-Copy" sketch:type="MSArtboardGroup">
            <g id="avatar8" sketch:type="MSLayerGroup">
                <path d="M0,0 L100,0 L100,100 L0,100 L0,0 Z" id="Fill-46" fill="#FFF9C4" sketch:type="MSShapeGroup"></path>
                <g id="Group" transform="translate(14.000000, 13.000000)" sketch:type="MSShapeGroup">
                    <path d="M59.3851818,28.7989707 C59.3851818,28.7989707 60.9345455,42.7838356 58.1891818,48.9937816 C55.445,55.2025383 50.9753636,62.4696734 46.4844545,64.6661059 C41.9911818,66.8696734 29.497,67.3108626 21.8884545,71.0639437 C14.2763636,74.8170248 9.62709091,76.4699978 9.945,79.7176734 C10.27,82.977241 12.779,84.3174572 12.779,84.3174572 C12.779,84.3174572 3.54545455,81.1970248 3.54545455,74.6921599 C3.54545455,68.1861059 7.04127273,65.339187 9.16381818,62.1830789 C15.6141818,52.554214 10.712,39.4778897 10.712,39.4778897 C10.712,39.4778897 17.498,14.9270789 18.1964545,14.9687005 C18.5108182,14.9865383 23.2191818,13.3157275 28.5385455,11.6461059 C34.9912727,9.62091669 42.3445455,7.5957275 43.8501818,8.58156534 C46.5955455,10.3819978 59.3851818,28.7989707 59.3851818,28.7989707" id="Fill-662" fill="#43191B"></path>
                    <path d="M37.2390909,47.8577297 L37.2390909,87.2365405 L15.8895455,87.2365405 C15.5432727,87.0890811 15.3636364,87.0117838 15.3636364,87.0117838 C15.3636364,83.5001081 15.7229091,80.5271351 16.3386364,78.0215135 C19.3463636,65.408973 28.4380909,64.3125405 28.4380909,64.3125405 L28.5420909,64.3125405 L28.8257273,64.2495135 C29.9035455,63.9498378 30.6362727,62.3587027 31.135,60.0778378 C31.2177273,59.688973 31.2933636,59.2834595 31.356,58.847027 C31.473,58.1275676 31.577,57.356973 31.6526364,56.564973 C31.7010909,56.0845405 31.746,55.6017297 31.7909091,55.107027 C31.9811818,52.6882162 32.0473636,50.0636757 32.0473636,47.5675676 C32.0473636,47.5675676 34.9191818,47.8577297 37.2390909,47.8577297" id="Fill-663" fill="#D4B591"></path>
                    <path d="M58.5886364,87.0117838 C58.5886364,87.0117838 58.3948182,87.0890811 58.0792727,87.2365405 L36.6363636,87.2365405 L36.6363636,47.8577297 L36.6812727,47.8577297 C39.0011818,47.8577297 41.8942727,47.5675676 41.8942727,47.5675676 C41.8942727,50.0494054 41.9533636,52.6454054 42.1471818,55.0475676 C42.1920909,55.5291892 42.237,56.0096216 42.2819091,56.4734054 C42.3717273,57.3010811 42.4615455,58.08 42.5820909,58.8184865 L42.5820909,58.8291892 C42.627,59.1621622 42.6860909,59.463027 42.7487273,59.7627027 C43.1942727,61.9698378 43.8549091,63.5883243 44.8121818,64.1317838 L45.0367273,64.220973 C45.1856364,64.284 45.3510909,64.3125405 45.5177273,64.3125405 C45.5177273,64.3125405 45.6666364,64.3268108 45.9360909,64.3874595 C47.3259091,64.6883243 51.8818182,66.0677838 55.1176364,71.6236757 C57.109,74.9819459 58.5886364,79.8992432 58.5886364,87.0117838" id="Fill-664" fill="#E9CAA3"></path>
                    <path d="M30.7331818,58.4474595 C30.7308182,58.4450811 30.7284545,58.4427027 30.7272727,58.4391351 C30.8442727,57.7196757 30.9518182,56.9538378 31.0274545,56.1582703 C31.0723636,55.6802162 31.1137273,55.1985946 31.1621818,54.7027027 C31.1645455,54.7027027 31.1669091,54.7038919 31.1692727,54.7038919 C31.1243636,55.1962162 31.0794545,55.6778378 31.031,56.1570811 C30.9553636,56.9490811 30.8513636,57.7196757 30.7343636,58.4391351 C30.7331818,58.4427027 30.7331818,58.4450811 30.7331818,58.4474595" id="Fill-665" fill="#956A5B"></path>
                    <path d="M36.6115455,61.6535135 L36.608,61.6535135 C33.2197273,61.6368649 31.2437273,59.18 30.7272727,58.4462703 C30.7272727,58.4438919 30.7272727,58.4415135 30.7284545,58.4379459 C30.8454545,57.7184865 30.9494545,56.9478919 31.0250909,56.1558919 C31.0735455,55.6766486 31.1184545,55.195027 31.1633636,54.7027027 C32.8202727,55.1201081 34.619,55.3757838 36.5465455,55.4067027 L36.608,55.4067027 L36.6115455,55.4067027 L36.6115455,61.6535135" id="Fill-666" fill="#BD9B7F"></path>
                    <path d="M36.6647273,61.7141622 L36.6363636,61.7141622 L36.6363636,55.4673514 C38.6088182,55.4364324 40.4335455,55.1641081 42.1400909,54.7027027 C42.185,55.1807568 42.2299091,55.6611892 42.2783636,56.1285405 C42.3610909,56.955027 42.458,57.7363243 42.575,58.4712432 L42.575,58.4843243 C42.0502727,59.3274595 40.2385455,61.7141622 36.6647273,61.7141622" id="Fill-667" fill="#C2A184"></path>
                    <path d="M60.3282727,76.9940753 C60.3282727,76.9940753 54.1296364,64.7275888 45.4905455,64.2162375 C45.2695455,64.1995888 51.9137273,73.9604537 43.0642727,76.2282375 C40.8802727,76.7812105 38.7080909,76.9786159 36.6895455,76.9048861 L36.6410909,76.9048861 C34.6225455,76.9786159 32.448,76.7812105 30.264,76.2282375 C21.4098182,73.9604537 28.0610909,64.1995888 27.8400909,64.2162375 C19.1974545,64.7275888 13,76.9940753 13,76.9940753 L15.7406364,77.9252105 L19.6016364,79.2309402 C19.6016364,79.2309402 18.2543636,82.7568861 18.1810909,87.1402375 L55.1495455,87.1402375 C55.0739091,82.7568861 53.729,79.2309402 53.729,79.2309402 L57.59,77.9252105 L60.3282727,76.9940753" id="Fill-668" fill="#54474A"></path>
                    <path d="M36.5782422,5.94603107 C14.2938785,5.90084188 14.1626967,23.8587878 15.155424,35.5687338 C13.6237876,32.81695 9.10924218,33.8396527 9.47560582,38.2396527 C9.83133309,42.4505716 16.2202422,44.3615986 16.1268785,43.8966257 C17.9516058,53.4398689 28.454424,58.7353284 36.5782422,59.4880851 L36.7436967,59.4928419 L36.7436967,5.94722025 L36.5782422,5.94603107" id="Fill-669" fill="#C39D7F"></path>
                    <path d="M11.0138287,35.5604158 C12.1294651,33.8634428 13.8549196,34.593605 14.2803742,34.9670104 C14.7294651,35.3808483 15.0851923,35.9171726 14.8098287,36.925605 C14.6502833,37.4857131 14.0239196,37.5356591 14.1763742,38.3954428 C14.3453742,39.3574969 14.8157378,39.4240915 15.0851923,39.6440915 C15.3487378,39.8617131 15.6808287,40.0281996 15.8498287,40.4396591 C16.0058287,40.8463618 16.0401014,41.2780374 15.9467378,41.6502537 C15.7730105,42.3459293 14.7117378,41.790578 13.9967378,41.4861455 C13.5228287,41.281605 12.0372833,40.0829023 11.6567378,39.6773888 C10.7053742,38.6582537 10.2669196,36.6913347 11.0138287,35.5604158" id="Fill-670" fill="#B29177"></path>
                    <path d="M36.8089091,5.94603107 C59.0920909,5.90084188 59.2232727,23.8587878 58.2281818,35.5687338 C59.7633636,32.81695 64.2779091,33.8396527 63.9044545,38.2396527 C63.5522727,42.4505716 57.1704545,44.3615986 57.2531818,43.8966257 C55.432,53.4398689 44.9256364,58.7353284 36.8089091,59.4880851 L36.6363636,59.4928419 L36.6363636,5.94722025 L36.8089091,5.94603107" id="Fill-671" fill="#D1AE8F"></path>
                    <path d="M62.8962365,35.5604158 C61.7758728,33.8634428 60.0516001,34.593605 59.6261456,34.9670104 C59.1758728,35.3808483 58.8166001,35.9171726 59.1002365,36.925605 C59.2562365,37.4857131 59.8814183,37.5356591 59.7266001,38.3954428 C59.5564183,39.3574969 59.0896001,39.4240915 58.823691,39.6440915 C58.5577819,39.8617131 58.2221456,40.0281996 58.0602365,40.4396591 C57.8971456,40.8463618 57.8699638,41.2780374 57.9597819,41.6502537 C58.1323274,42.3459293 59.1971456,41.790578 59.9086001,41.4861455 C60.3789638,41.281605 61.8727819,40.0829023 62.2497819,39.6773888 C63.1999638,38.6582537 63.6396001,36.6913347 62.8962365,35.5604158" id="Fill-672" fill="#B29177"></path>
                    <path d="M36.561668,10.7027027 C29.1185771,10.7027027 23.6739407,12.7635676 20.3731225,16.8246486 C15.7723044,22.4935135 15.9448498,31.1627027 17.6454862,37.3821622 C18.1643044,39.2848649 18.426668,44.4067027 18.7894862,46.2891892 C20.3943953,54.6991351 30.1420316,59.1788108 36.561668,59.1788108 L36.7353953,59.1716757 L36.7353953,10.7074595 L36.561668,10.7027027" id="Fill-673" fill="#D4B591"></path>
                    <path d="M52.6133636,16.8282162 C49.3432727,12.7921081 43.9577273,10.736 36.6363636,10.7027027 L36.6363636,59.1669189 C43.9648182,59.0896216 52.728,54.1842162 54.2312727,46.2844324 C54.5881818,44.4019459 54.8540909,39.2801081 55.3752727,37.3774054 C57.0664545,31.171027 57.2354545,22.5172973 52.6133636,16.8282162" id="Fill-674" fill="#E9CAA3"></path>
                    <path d="M40.5091818,51.367027 C40.5091818,51.367027 38.8262727,53.1745946 36.7557273,53.1745946 C34.6816364,53.1745946 33.0909091,51.411027 33.0909091,51.411027 C33.0909091,51.411027 34.6816364,51.1351351 36.7557273,51.1351351 C38.8262727,51.1351351 40.5091818,51.367027 40.5091818,51.367027" id="Fill-675" fill="#B16164"></path>
                    <path d="M37.9103636,51.1351351 C37.3289091,51.1351351 36.8597273,51.499027 36.8526364,51.9521081 C36.8384545,51.499027 36.3716364,51.1351351 35.7878182,51.1351351 C35.1992727,51.1351351 33.0909091,51.9651892 33.0909091,51.9651892 C33.0909091,51.9651892 35.1484545,52.1887568 35.7358182,52.1887568 C36.3160909,52.1887568 36.8384545,52.4182703 36.8526364,51.9794595 C36.8597273,52.4206486 37.2804545,52.2494054 37.8654545,52.2494054 C38.4492727,52.2494054 40.6060909,51.9651892 40.6060909,51.9651892 C40.6060909,51.9651892 38.5012727,51.1351351 37.9103636,51.1351351" id="Fill-676" fill="#BF6868"></path>
                    <path d="M16.5726364,44.8217297 L16.1306364,44.8217297 C16.1294545,45.4401081 15.6248182,45.9455135 15.0031818,45.9467027 C14.3815455,45.9467027 13.8828182,45.4436757 13.8816364,44.8217297 C13.8828182,44.1997838 14.3803636,43.7003243 15.0031818,43.6991351 C15.6271818,43.6991351 16.1294545,44.2033514 16.1306364,44.8217297 L17.0134545,44.8217297 C17.0134545,43.7050811 16.1081818,42.8131892 15.0031818,42.8108108 C13.897,42.8131892 13.0011818,43.7086486 13,44.8217297 C13,45.9348108 13.8958182,46.8326486 15.0031818,46.835027 C16.1093636,46.835027 17.0122727,45.9371892 17.0134545,44.8217297 L16.5726364,44.8217297" id="Fill-677" fill="#DFBD31"></path>
                    <path d="M59.1157273,44.8217297 L58.6737273,44.8217297 C58.6725455,45.4424865 58.1738182,45.9467027 57.5521818,45.9467027 C56.9305455,45.9455135 56.4294545,45.4412973 56.4282727,44.8217297 C56.4294545,44.200973 56.9293636,43.7003243 57.5521818,43.6991351 C58.175,43.7003243 58.6737273,44.1997838 58.6737273,44.8217297 L59.5565455,44.8217297 C59.5541818,43.7086486 58.6583636,42.8131892 57.5521818,42.8108108 C56.4471818,42.8131892 55.5454545,43.7074595 55.5454545,44.8217297 C55.5454545,45.936 56.446,46.835027 57.5521818,46.835027 C58.6595455,46.8326486 59.5565455,45.9348108 59.5565455,44.8217297 L59.1157273,44.8217297" id="Fill-678" fill="#DFBD31"></path>
                    <path d="M13.9419091,33.2972973 C13.9419091,33.2972973 14.1215455,33.8490811 14.391,34.8384865 C14.6474545,35.8100541 15.0138182,37.2335135 15.249,38.9685405 C15.4002727,39.8307027 15.4900909,40.7808649 15.5562727,41.7904865 C15.6153636,42.8012973 15.6638182,43.8763243 15.5940909,44.9917838 C15.5314545,46.1036757 15.4558182,47.2678919 15.2206364,48.4356757 C15.145,49.0231351 14.9925455,49.6094054 14.8365455,50.1897297 L14.6025455,51.0673514 L14.5434545,51.2837838 L14.5292727,51.3408649 L14.4808182,51.4776216 L14.443,51.5763243 L14.2905455,51.9806486 L13.6582727,53.5753514 C13.4573636,54.1045405 13.091,54.6741622 12.8073636,55.2116757 C12.2542727,56.3532973 11.466,57.2202162 10.803,58.143027 C10.049,58.9909189 9.32336364,59.8126486 8.53154545,60.4643243 C7.76809091,61.1492973 7.01763636,61.7545946 6.27427273,62.235027 C5.56518182,62.7594595 4.87027273,63.1732973 4.25572727,63.516973 C3.64354545,63.8868108 3.094,64.1745946 2.63427273,64.3922162 C1.71836364,64.8405405 1.18181818,65.0664865 1.18181818,65.0664865 C1.18181818,65.0664865 1.573,64.6324324 2.28563636,63.9094054 C2.99,63.1816216 4.01345455,62.1767568 5.14681818,60.9352432 C5.74127273,60.3275676 6.30854545,59.62 6.92427273,58.9064865 C7.56009091,58.2001081 8.07536364,57.3474595 8.70054545,56.5507027 C9.21227273,55.6897297 9.81381818,54.8037838 10.2156364,53.8904865 C10.4366364,53.4255135 10.6883636,53.0342703 10.8928182,52.4931892 L11.5014545,50.8901622 L11.6598182,50.4905946 L11.7011818,50.3895135 L11.7082727,50.3633514 C11.6539091,50.5227027 11.6988182,50.3930811 11.6881818,50.424 L11.7011818,50.38 L11.7567273,50.1825946 L11.9753636,49.4024865 C12.116,48.8851892 12.2920909,48.3797838 12.3795455,47.8505946 C12.4965455,47.3309189 12.6170909,46.8064865 12.7281818,46.2939459 C12.8109091,45.7718919 12.8971818,45.2581622 12.9775455,44.7444324 C13.1087273,43.7229189 13.2434545,42.7251892 13.3332727,41.7667027 C13.3888182,40.8046486 13.5022727,39.8913514 13.5412727,39.0410811 C13.6440909,37.3238919 13.7374545,35.8932973 13.8036364,34.8931892 C13.8721818,33.88 13.9419091,33.2972973 13.9419091,33.2972973" id="Fill-679" fill="#812A2A"></path>
                    <path d="M14.0556419,45.1891892 C14.0556419,45.1891892 14.2766419,45.7778378 14.5780056,46.8029189 C14.7056419,47.3309189 14.9644601,47.9171892 14.9821874,48.7103784 C15.0306419,49.4714595 15.1996419,50.4109189 15.0897328,51.3705946 C14.9644601,52.3100541 14.9786419,53.4195676 14.6193692,54.4696216 C14.4598237,55.0107027 14.3014601,55.5624865 14.1383692,56.1309189 C13.9410056,56.6767568 13.6786419,57.2059459 13.4434601,57.7612973 C12.9801874,58.9029189 12.3100965,59.9077838 11.6742783,60.9863784 C10.9923692,61.9912432 10.2667328,63.0258378 9.51391466,63.9700541 C8.74218739,64.9142703 7.97518739,65.8584865 7.21409648,66.7075676 C6.4683692,67.5756757 5.74864193,68.3997838 5.10573284,69.2001081 C3.83055102,70.8031351 2.91818739,72.2860541 2.66173284,73.7107027 C2.51282375,74.428973 2.54827829,75.132973 2.61682375,75.7917838 C2.6853692,76.1128649 2.76218739,76.4101622 2.81064193,76.716973 C2.90755102,77.0035676 2.99027829,77.2687568 3.06591466,77.5125405 C3.22191466,78.0036757 3.41218739,78.3747027 3.51146011,78.6446486 C3.61900557,78.9181622 3.67809648,79.0656216 3.67809648,79.0656216 C3.67809648,79.0656216 3.55046011,78.9740541 3.31173284,78.8099459 C3.09427829,78.6208649 2.69246011,78.4139459 2.31900557,78.0012973 C2.1263692,77.7991351 1.90418739,77.5779459 1.66900557,77.3341622 C1.45155102,77.0642162 1.24827829,76.7490811 1.01309648,76.408973 C0.826369203,76.0545946 0.60773284,75.6562162 0.42573284,75.2102703 C0.286278294,74.7571892 0.124369203,74.2612973 0.0794601123,73.7261622 C-0.0871762513,72.6499459 0.0109146578,71.4393514 0.348914658,70.292973 C0.681005567,69.1394595 1.18564193,68.0073514 1.8013692,66.9668108 C2.41591466,65.9215135 3.09782375,64.9071351 3.83055102,63.9545946 C4.54909648,62.9961081 5.27827829,62.0887568 5.99800557,61.1730811 C6.7413692,60.2728649 7.40082375,59.3536216 8.11346011,58.4819459 C8.71855102,57.5781622 9.44773284,56.7338378 9.95591466,55.8538378 C10.2360056,55.4197838 10.512551,54.9940541 10.7820056,54.5754595 C11.0171874,54.1425946 11.2381874,53.7192432 11.4591874,53.3054054 C11.708551,52.8927568 11.9059147,52.4824865 12.0607328,52.0662703 C12.2380056,51.6512432 12.4070056,51.2528649 12.5724601,50.8675676 C12.8903692,50.091027 13.0321874,49.3656216 13.2744601,48.6949189 C13.5131874,48.0408649 13.5746419,47.3618378 13.6892783,46.8481081 C13.8866419,45.7944865 14.0556419,45.1891892 14.0556419,45.1891892" id="Fill-680" fill="#812A2A"></path>
                    <path d="M59.7334474,35.6756757 C59.7334474,35.6756757 59.8055383,35.8052973 59.9402656,36.0431351 C60.0714474,36.2869189 60.3066292,36.6091892 60.4626292,37.1300541 C60.6635383,37.6342703 60.8183565,38.2692973 60.8774474,39.0268108 C60.9459929,39.7795676 60.918811,40.6524324 60.7249929,41.5621622 C60.3964474,43.4125405 59.4805383,45.3913514 58.3436292,47.2976216 C57.7657201,48.2501622 57.1677201,49.2074595 56.5425383,50.140973 C55.926811,51.0768649 55.3051747,52.0282162 54.685902,52.9819459 C54.0465383,53.9392432 53.4792656,54.8775135 52.8777201,55.8086486 C52.3529929,56.7647568 51.7100838,57.6518919 51.2739929,58.5865946 C51.0317201,59.0444324 50.7965383,59.4963243 50.5684474,59.9363243 C50.3651747,60.3882162 50.167811,60.832973 49.9739929,61.2634595 C49.5497201,62.1232432 49.3452656,62.9842162 49.0344474,63.7655135 C48.7437201,64.5551351 48.653902,65.3126486 48.4529929,65.9797838 C48.2591747,66.6481081 48.2107201,67.2474595 48.1350838,67.7469189 C47.9897201,68.7422703 47.879811,69.3321081 47.879811,69.3321081 C47.879811,69.3321081 47.7344474,68.7731892 47.5370838,67.7528649 C47.450811,67.2438919 47.2841747,66.6148108 47.3089929,65.8917838 C47.3160838,65.1735135 47.2014474,64.3208649 47.346811,63.4325405 C47.4850838,62.5477838 47.522902,61.5334054 47.8514474,60.5523243 C47.9897201,60.0516757 48.1350838,59.5343784 48.2804474,59.0028108 C48.4435383,58.4855135 48.6810838,57.9872432 48.8890838,57.4604324 C49.7187201,55.3638919 50.921811,53.2887568 52.1863565,51.3277838 C52.8162656,50.3895135 53.4733565,49.3905946 54.1635383,48.4677838 C54.841902,47.5711351 55.5084474,46.6923243 56.147811,45.8372973 C57.395811,44.1474595 58.4570838,42.5587027 59.0869929,41.0734054 C59.397811,40.3325405 59.618811,39.6273514 59.7369929,38.9804324 C59.846902,38.3335135 59.9130838,37.732973 59.8882656,37.2608649 C59.8953565,36.7780541 59.8327201,36.363027 59.787811,36.0954595 C59.7499929,35.8243243 59.7334474,35.6756757 59.7334474,35.6756757" id="Fill-681" fill="#812A2A"></path>
                    <path d="M13.1465455,19.4570981 C13.0980909,15.088017 14.9925455,13.6681251 16.1956364,11.5382873 C17.3987273,9.40488189 20.0743636,6.86953054 21.2774545,5.8182873 C22.4734545,4.77061162 23.7699091,3.43990892 23.7699091,3.43990892 C23.7699091,3.43990892 25.7990909,1.89634135 28.5716364,1.28390892 C31.3441818,0.678611622 32.1738182,1.38855757 34.7560909,2.38390892 C35.0810909,2.51353054 35.3682727,2.6395846 35.6235455,2.76801703 C37.2213636,1.28390892 37.2000909,1.1542873 38.9775455,0.455044055 C42.2996364,-0.85782081 44.2342727,1.0876927 44.2342727,1.0876927 L42.2960909,1.37547649 C42.2960909,1.37547649 45.435,0.954503514 48.0208182,2.68239541 C50.6054545,4.40909811 51.5048182,5.8182873 51.5048182,5.8182873 C51.5048182,5.8182873 47.7785455,4.97634135 50.1847273,5.8182873 C52.5838182,6.66617919 54.7051818,7.98499 56.6421818,9.7116927 C58.5815455,11.436017 60.6178182,13.8714765 61.5431818,16.4103954 C62.4638182,18.9493143 61.0775455,15.088017 59.2315455,13.6681251 C57.3890909,12.2470441 55.9059091,11.7404495 55.9059091,11.7404495 C55.9059091,11.7404495 58.4326364,14.2389359 60.6178182,19.3512603 C61.9485455,22.4776386 63.3277273,26.6005576 62.8880909,33.3337468 C62.1931818,44.0804495 57.0983636,48.0012062 57.0983636,48.0012062 C57.0983636,48.0012062 58.2766364,46.7525576 58.7505455,45.0888819 C59.228,43.4168819 58.9987273,41.3310441 58.9538182,41.5831522 C58.8580909,42.0921251 53.8353636,49.5031522 53.8353636,49.5031522 C53.8353636,49.5031522 57.8618182,43.7308278 56.3585455,36.2662873 C55.8125455,33.5703954 54.3258182,31.9542873 53.69,31.1301792 C53.4926364,30.8709359 53.3307273,30.6164495 53.157,30.3655305 C50.7200909,33.4693143 46.1192727,34.7845576 46.1192727,34.7845576 C46.1192727,34.7845576 49.088,31.593963 49.4579091,29.2572062 C49.8278182,26.9204495 49.6659091,22.0804495 47.0800909,19.3346116 C46.7267273,18.9647738 46.3154545,18.5806657 45.877,18.2001251 C47.073,20.8841251 46.9902727,23.3814224 45.8498182,25.9512603 C45.2825455,27.2225035 44.252,28.2190441 43.2710909,28.9349359 C40.6498182,31.1813143 36.6670909,32.6142873 32.201,32.6142873 C30.0477273,32.6142873 28.0114545,32.2801251 26.1796364,31.6831522 L26.1796364,31.6855305 L26.1654545,31.6795846 C25.8546364,31.5796927 25.5568182,31.4690981 25.2601818,31.3525576 C22.0858182,30.3358008 12.0758182,28.1881251 16.8456364,43.7106116 L16.887,43.9425035 L16.8940909,43.9389359 C17.5819091,47.4030441 19.5484545,51.696017 19.5484545,51.696017 C19.5484545,51.696017 17.0524545,47.2698549 15.0209091,43.6154765 C12.9881818,39.9610981 12.7388182,36.5576386 12.9255455,31.9150441 C12.9633636,30.9636927 13.0366364,30.1372062 13.1370909,29.3535305 C12.9113636,29.6627197 12.6797273,29.9362332 12.4421818,30.141963 C10.7793636,31.5582873 9.45454545,31.5345035 9.45454545,31.5345035 C9.45454545,31.5345035 13.2576364,29.3452062 13.1465455,19.4570981" id="Fill-682" fill="#43191B"></path>
                </g>
            </g>
        </g>
    </g>
</svg>