<?xml version="1.0" encoding="UTF-8" standalone="no"?>
<svg width="100px" height="100px" viewBox="0 0 100 100" version="1.1" xmlns="http://www.w3.org/2000/svg" xmlns:xlink="http://www.w3.org/1999/xlink" xmlns:sketch="http://www.bohemiancoding.com/sketch/ns">
    <!-- Generator: Sketch 3.4.4 (17249) - http://www.bohemiancoding.com/sketch -->
    <title>avatar5</title>
    <desc>Created with Sketch.</desc>
    <defs>
        <path d="M0.148870968,3.05162791 C0.198145161,2.69686047 0.243225806,2.33267442 0.278870968,1.96011628 C0.28516129,1.89104651 0.291451613,1.82197674 0.297741935,1.75290698 C0.291451613,1.82302326 0.28516129,1.89313953 0.278870968,1.96325581 C0.243225806,2.33476744 0.199193548,2.69790698 0.148870968,3.05162791 L0.148870968,3.05162791 Z M0.38266129,0.840348837 C0.383709677,0.826744186 0.384758065,0.813139535 0.385806452,0.798488372 L0.385806452,0.801627907 C0.384758065,0.815232558 0.383709677,0.827790698 0.38266129,0.840348837 L0.38266129,0.840348837 Z" id="path-1"></path>
    </defs>
    <g id="Page-1" stroke="none" stroke-width="1" fill="none" fill-rule="evenodd" sketch:type="MSPage">
        <g id="Artboard-2-Copy" sketch:type="MSArtboardGroup">
            <g id="avatar5" sketch:type="MSLayerGroup">
                <path d="M0,0 L100,0 L100,100 L0,100 L0,0 Z" id="Fill-23" fill="#B71C1C" sketch:type="MSShapeGroup"></path>
                <g id="Group" transform="translate(18.000000, 11.000000)">
                    <path d="M30.9777419,57.7988372 L30.9777419,89.2067442 L13.8114516,89.2067442 C13.5346774,89.0843023 13.3879032,89.0298837 13.3879032,89.0298837 C13.3879032,72.18 23.9000806,70.92 23.9000806,70.92 L23.9860484,70.92 L24.2135484,70.875 L24.3079032,70.8373256 C25.0658871,70.5516279 25.596371,69.4737209 25.9706452,67.9395349 C26.0073387,67.8202326 26.0408871,67.675814 26.065,67.542907 L26.1142742,67.3304651 C26.1635484,67.0887209 26.2096774,66.8365116 26.246371,66.5759302 C26.3407258,66.0003488 26.4277419,65.389186 26.4885484,64.7539535 C26.5220968,64.3709302 26.5587903,63.9889535 26.5954839,63.5923256 L26.5954839,63.5818605 C26.7527419,61.6531395 26.8009677,59.5611628 26.8009677,57.5717442 C26.8009677,57.5717442 29.1137097,57.7988372 30.9777419,57.7988372" id="Fill-549" fill="#D4B591" sketch:type="MSShapeGroup"></path>
                    <path d="M48.6231452,89.0298837 C48.6231452,89.0298837 48.4700806,89.0843023 48.2153226,89.2067442 L30.9777419,89.2067442 L30.9777419,57.7988372 L31.0144355,57.7988372 C32.8795161,57.7988372 35.2037903,57.5717442 35.2037903,57.5717442 C35.2037903,59.5475581 35.2530645,61.6154651 35.406129,63.5316279 L35.406129,63.5452326 C35.4428226,63.9272093 35.4805645,64.3123256 35.5162097,64.6859302 C35.5906452,65.34 35.6608871,65.9637209 35.7562903,66.5497674 L35.7562903,66.5654651 C35.7804032,66.7402326 35.8170968,66.9212791 35.8537903,67.0887209 L35.8883871,67.2938372 C36.2500806,69.0551163 36.7805645,70.3454651 37.5532258,70.7797674 L37.6937097,70.8373256 L37.7314516,70.8498837 L37.8048387,70.875 C37.8991935,70.9095349 38.0071774,70.92 38.1141129,70.92 C38.1141129,70.92 48.6231452,72.18 48.6231452,89.0298837" id="Fill-550" fill="#E9CAA3" sketch:type="MSShapeGroup"></path>
                    <g id="Group-553" transform="translate(26.209677, 62.790698)">
                        <mask id="mask-2" sketch:name="Clip 552" fill="white">
                            <use xlink:href="#path-1"></use>
                        </mask>
                        <g id="Clip-552"></g>
                        <path d="M0.148870968,0.798488372 L0.385806452,0.798488372 L0.385806452,3.05162791 L0.148870968,3.05162791 L0.148870968,0.798488372 Z" id="Fill-551" fill="#AA7660" sketch:type="MSShapeGroup" mask="url(#mask-2)"></path>
                    </g>
                    <path d="M30.9777419,69.1356977 C28.2456452,69.122093 26.6573387,67.1462791 26.2495161,66.5717442 C26.2872581,66.334186 26.3239516,66.0903488 26.3585484,65.8423256 C26.408871,65.4886047 26.4529032,65.1254651 26.4885484,64.7539535 C26.4948387,64.6838372 26.501129,64.6137209 26.5074194,64.5436047 C26.5346774,64.2432558 26.5650806,63.9397674 26.5923387,63.6310465 C26.5933871,63.6184884 26.5944355,63.6059302 26.5954839,63.5923256 L26.5954839,63.589186 C27.9300806,63.9240698 29.3768548,64.1302326 30.9295161,64.1511628 L30.9777419,64.1511628 L30.9777419,69.1356977" id="Fill-554" fill="#BD9B7F" sketch:type="MSShapeGroup"></path>
                    <path d="M35.7562903,66.5612791 L35.7562903,66.5497674 C35.6608871,65.9637209 35.5906452,65.34 35.5162097,64.6859302 C35.4805645,64.3123256 35.4428226,63.9272093 35.406129,63.5452326 C35.4071774,63.544186 35.4082258,63.544186 35.4092742,63.544186 C35.4428226,63.9240698 35.4826613,64.309186 35.5162097,64.6806977 C35.5906452,65.3368605 35.6608871,65.9595349 35.7562903,66.5487209 L35.7562903,66.5612791" id="Fill-555" fill="#AA7660" sketch:type="MSShapeGroup"></path>
                    <path d="M31.0029032,69.1356977 L30.9777419,69.1356977 L30.9777419,64.1511628 C32.565,64.1302326 34.0337903,63.9156977 35.406129,63.5452326 C35.4428226,63.9272093 35.4805645,64.3123256 35.5162097,64.6859302 C35.5906452,65.34 35.6608871,65.9637209 35.7562903,66.5497674 L35.7562903,66.5612791 C35.3358871,67.23 33.878629,69.1356977 31.0029032,69.1356977" id="Fill-556" fill="#C2A184" sketch:type="MSShapeGroup"></path>
                    <path d="M48.6231452,89.0298837 C48.6231452,89.0298837 48.4700806,89.0853488 48.2153226,89.2067442 L13.8114516,89.2067442 C13.5346774,89.0853488 13.3879032,89.0298837 13.3879032,89.0298837 C13.3879032,72.18 23.9000806,70.92 23.9000806,70.92 L23.9860484,70.92 L24.2135484,70.875 L24.3079032,70.8373256 C23.2752419,72.7765116 16.5928226,79.9273256 24.3079032,81.4960465 C26.7768548,81.9973256 29.003629,82.2265116 30.9777419,82.2736047 C35.1545161,82.3813953 38.1539516,81.677093 39.8041129,81.0523256 C43.1128226,79.8174419 39.3407258,73.0915116 37.6937097,70.8373256 L37.7314516,70.8498837 L37.8048387,70.875 C37.8991935,70.9095349 38.0071774,70.92 38.1141129,70.92 C38.1141129,70.92 48.6231452,72.18 48.6231452,89.0298837" id="Fill-557" fill="#FDFBF9" sketch:type="MSShapeGroup"></path>
                    <path d="M30.9662097,24.0519767 C13.0503226,24.0205814 12.9465323,38.3410465 13.7401613,47.6780233 C12.5104032,45.4866279 8.87983871,46.300814 9.18072581,49.810814 C9.46274194,53.1711628 14.5966935,54.6938372 14.5285484,54.3233721 C15.9910484,61.9325581 24.4368548,66.1573256 30.9662097,66.7580233 L31.1035484,66.7643023 L31.1035484,24.0540698 L30.9662097,24.0519767" id="Fill-558" fill="#C39D7F" sketch:type="MSShapeGroup"></path>
                    <path d="M10.1410484,48.2954651 C11.0405645,46.939186 12.4265323,47.5231395 12.7662097,47.8213953 C13.1320968,48.147907 13.4162097,48.5780233 13.1929032,49.3817442 C13.0670968,49.8338372 12.563871,49.8662791 12.6865323,50.5538372 C12.8249194,51.3230233 13.1991935,51.3722093 13.4130645,51.5459302 C13.6279839,51.7206977 13.8921774,51.8588372 14.026371,52.1811628 C14.156371,52.5087209 14.1804839,52.8540698 14.1070968,53.1502326 C13.9718548,53.7059302 13.1132258,53.2643023 12.5397581,53.0194186 C12.1623387,52.8551163 10.9640323,51.8975581 10.66,51.574186 C9.89258065,50.764186 9.54346774,49.1996512 10.1410484,48.2954651" id="Fill-559" fill="#B29177" sketch:type="MSShapeGroup"></path>
                    <path d="M31.0553226,24.0519767 C48.9701613,24.0205814 49.0739516,38.3410465 48.2771774,47.6780233 C49.5069355,45.4866279 53.1375,46.300814 52.8429032,49.810814 C52.5545968,53.1711628 47.4216935,54.6938372 47.4950806,54.3233721 C46.0262903,61.9325581 37.583629,66.1573256 31.0553226,66.7580233 L30.9169355,66.7643023 L30.9169355,24.0540698 L31.0553226,24.0519767" id="Fill-560" fill="#D1AE8F" sketch:type="MSShapeGroup"></path>
                    <path d="M51.8689516,48.2954651 C50.973629,46.939186 49.5845161,47.5231395 49.2437903,47.8213953 C48.8820968,48.147907 48.5969355,48.5780233 48.8181452,49.3817442 C48.9439516,49.8338372 49.446129,49.8662791 49.3266129,50.5538372 C49.1892742,51.3230233 48.815,51.3722093 48.5969355,51.5459302 C48.3862097,51.7206977 48.1157258,51.8588372 47.983629,52.1811628 C47.8546774,52.5087209 47.8305645,52.8540698 47.9008065,53.1502326 C48.0423387,53.7059302 48.8978226,53.2643023 49.4744355,53.0194186 C49.8487097,52.8551163 51.0470161,51.8975581 51.3510484,51.574186 C52.1142742,50.764186 52.4696774,49.1996512 51.8689516,48.2954651" id="Fill-561" fill="#B29177" sketch:type="MSShapeGroup"></path>
                    <path d="M30.8708065,28.1051163 C24.8876613,28.1051163 20.5085484,29.7460465 17.856129,32.9881395 C14.1542742,37.5101163 14.2958065,44.4202326 15.6629032,49.3796512 C16.0801613,50.897093 16.2950806,54.985814 16.5833871,56.4844186 C17.8718548,63.1936047 25.7095968,66.7674419 30.8708065,66.7674419 L31.0091935,66.7643023 L31.0091935,28.1103488 L30.8708065,28.1051163" id="Fill-562" fill="#D4B591" sketch:type="MSShapeGroup"></path>
                    <path d="M43.8582258,32.9944186 C41.2267742,29.7753488 36.8969355,28.1354651 31.0091935,28.1103488 L31.0091935,66.7643023 C36.9032258,66.7025581 43.9473387,62.7865116 45.1582258,56.4844186 C45.4433871,54.985814 45.6583065,50.897093 46.0755645,49.3796512 C47.436371,44.4348837 47.5716129,37.534186 43.8582258,32.9944186" id="Fill-563" fill="#E9CAA3" sketch:type="MSShapeGroup"></path>
                    <path d="M48.9062097,44.1094186 L48.9062097,33.3366279 C48.9062097,33.3366279 64.6246774,34.1340698 64.6246774,19.6943023 C64.6246774,19.6943023 62.5341935,1.24325581 42.3495968,10.0684884 C42.3495968,10.0684884 40.5212097,0.441627907 28.9910484,0.97744186 C28.9910484,0.97744186 22.1765323,-0.09 17.2029839,7.93151163 C17.2029839,7.93151163 2.26870968,8.73313953 0.695080645,22.369186 C0.695080645,22.369186 -0.875403226,31.7281395 13.5346774,35.2046512 L13.2809677,43.8456977 C18.4264516,40.6569767 24.4431452,38.8036047 30.8865323,38.8036047 C37.5039516,38.8036047 43.6674194,40.7563953 48.9062097,44.1094186" id="Fill-566" fill="#FFFFFF" sketch:type="MSShapeGroup"></path>
                </g>
            </g>
        </g>
    </g>
</svg>