<?xml version="1.0" encoding="UTF-8" standalone="no"?>
<svg width="100px" height="100px" viewBox="0 0 100 100" version="1.1" xmlns="http://www.w3.org/2000/svg" xmlns:xlink="http://www.w3.org/1999/xlink" xmlns:sketch="http://www.bohemiancoding.com/sketch/ns">
    <!-- Generator: Sketch 3.4.4 (17249) - http://www.bohemiancoding.com/sketch -->
    <title>avatar3</title>
    <desc>Created with Sketch.</desc>
    <defs></defs>
    <g id="Page-1" stroke="none" stroke-width="1" fill="none" fill-rule="evenodd" sketch:type="MSPage">
        <g id="Artboard-1-Copy-2" sketch:type="MSArtboardGroup">
            <g id="avatar3" sketch:type="MSLayerGroup">
                <path d="M48.351,87.736 L48.468,87.746 C48.655,87.746 48.769,87.652 48.769,87.495 C48.769,87.352 48.673,87.267 48.494,87.267 L48.351,87.278 L48.351,87.736 L48.351,87.736 Z M48,87.032 C48.108,87.013 48.263,87 48.474,87 C48.693,87 48.851,87.043 48.953,87.125 C49.053,87.202 49.117,87.332 49.117,87.483 C49.117,87.639 49.07,87.767 48.977,87.851 C48.857,87.962 48.678,88.015 48.468,88.015 L48.351,88.007 L48.351,88.564 L48,88.564 L48,87.032 L48,87.032 Z" id="Fill-588" fill="#FFFFFF" sketch:type="MSShapeGroup"></path>
                <path d="M49,87 L49.351,87 L49.351,88.554 L49,88.554 L49,87 Z" id="Fill-589" fill="#FFFFFF" sketch:type="MSShapeGroup"></path>
                <path d="M50,88.365 L50.743,87.3 L50.743,87.293 L50.067,87.293 L50.067,87 L51.196,87 L51.196,87.204 L50.471,88.256 L50.471,88.263 L51.208,88.263 L51.208,88.554 L50,88.554 L50,88.365" id="Fill-590" fill="#FFFFFF" sketch:type="MSShapeGroup"></path>
                <path d="M51,88.365 L51.74,87.3 L51.74,87.293 L51.067,87.293 L51.067,87 L52.196,87 L52.196,87.204 L51.471,88.256 L51.471,88.263 L52.208,88.263 L52.208,88.554 L51,88.554 L51,88.365" id="Fill-591" fill="#FFFFFF" sketch:type="MSShapeGroup"></path>
                <path d="M52.871,87.893 L52.772,87.563 C52.748,87.47 52.719,87.354 52.696,87.264 L52.69,87.264 C52.669,87.357 52.643,87.473 52.62,87.563 L52.526,87.893 L52.871,87.893 L52.871,87.893 Z M52.473,88.154 L52.365,88.554 L52,88.554 L52.476,87 L52.936,87 L53.421,88.554 L53.041,88.554 L52.924,88.154 L52.473,88.154 L52.473,88.154 Z" id="Fill-592" fill="#FFFFFF" sketch:type="MSShapeGroup"></path>
                <path d="M50.807,89.289 L50.772,89.285 L50.529,89.252 L50.403,89 L50.28,89.252 L50.038,89.285 L50,89.289 L50.204,89.486 L50.154,89.764 L50.403,89.633 L50.655,89.764 L50.608,89.486 L50.807,89.289" id="Fill-593" fill="#F3F1EF" sketch:type="MSShapeGroup"></path>
                <path d="M51.483,89.174 L51.46,89.17 L51.316,89.151 L51.24,89 L51.164,89.151 L51.021,89.17 L51,89.174 L51.12,89.291 L51.094,89.458 L51.24,89.379 L51.392,89.458 L51.363,89.291 L51.483,89.174" id="Fill-594" fill="#F3F1EF" sketch:type="MSShapeGroup"></path>
                <path d="M50.483,89.174 L50.463,89.17 L50.316,89.151 L50.24,89 L50.167,89.151 L50.024,89.17 L50,89.174 L50.123,89.291 L50.094,89.458 L50.24,89.379 L50.392,89.458 L50.363,89.291 L50.483,89.174" id="Fill-595" fill="#F3F1EF" sketch:type="MSShapeGroup"></path>
                <path d="M0,0 L100,0 L100,100 L0,100 L0,0 Z" id="Fill-60" fill="#3E2723" sketch:type="MSShapeGroup"></path>
                <g id="Group" transform="translate(15.000000, 7.000000)" sketch:type="MSShapeGroup">
                    <path d="M37.2317,59.8719176 L37.2317,93.3956353 L16.9961,93.3956353 C16.6672,93.2662471 16.5,93.2021059 16.5,93.2021059 C16.5,75.2226706 28.8882,73.8812353 28.8882,73.8812353 L28.9135,73.8812353 C30.1367,73.8535882 30.9155,72.4347412 31.4424,70.2760588 C31.526,69.9454 31.5975,69.5970471 31.6547,69.2276824 C31.7713,68.6139176 31.867,67.9636588 31.9385,67.2846471 C31.9803,66.8787882 32.0221,66.4674 32.0672,66.0471647 C32.2531,63.9880118 32.3081,61.7519176 32.3081,59.6308353 C32.3081,59.6308353 35.0339,59.8719176 37.2317,59.8719176" id="Fill-780" fill="#D4B591"></path>
                    <path d="M58.2043,93.1125294 L58.2043,93.2021059 C58.2043,93.2021059 58.1053,93.2397059 57.9304,93.3038471 L57.9183,93.3038471 L57.7214,93.3956353 L37.4,93.3956353 L37.4,59.8719176 L37.4418,59.8719176 C39.6418,59.8719176 42.3808,59.6308353 42.3808,59.6308353 C42.3808,61.7397529 42.438,63.9482 42.6217,65.9951882 C42.6668,66.4032588 42.7086,66.8124353 42.7504,67.2083412 C42.834,67.9138941 42.9209,68.5763176 43.0331,69.2022471 L43.0331,69.2166235 C43.0749,69.4986235 43.1332,69.7518706 43.1882,70.0051176 C43.7162,72.3219412 44.539,73.8812353 45.8139,73.8812353 C45.8139,73.8812353 47.6311,74.0681294 49.8872,75.3365765 C53.4908,77.3537059 58.1757,82.0968353 58.2043,93.1125294" id="Fill-781" fill="#E9CAA3"></path>
                    <path d="M36.9358,72.1814941 L36.9094,72.1814941 C34.0175,72.1693294 32.3312,70.0582 31.9,69.4488588 C32.0034,68.8350941 32.087,68.1815176 32.1508,67.5025059 C32.1893,67.0988588 32.2278,66.6874706 32.2674,66.2661294 C33.682,66.6244353 35.2143,66.8400824 36.8577,66.8655176 L36.9094,66.8655176 C36.9358,66.8655176 36.9611,66.8655176 36.9875,66.8644118 L36.9875,72.1814941 L36.9358,72.1814941" id="Fill-782" fill="#BD9B7F"></path>
                    <path d="M37.4,72.2345765 L37.4,66.9174941 C39.0533,66.8865294 40.5845,66.6609294 42.0167,66.2661294 C42.0552,66.6775176 42.0937,67.0866941 42.1322,67.4803882 C42.2103,68.1848353 42.284,68.8505765 42.3863,69.4731882 L42.3863,69.4908824 C41.9419,70.1997529 40.4129,72.2113529 37.4,72.2345765" id="Fill-783" fill="#C2A184"></path>
                    <path d="M51.1808,74.1333765 C49.0369,76.7001294 46.6532,79.1916824 44.0693,81.4310941 C40.3403,84.6646941 38.3383,88.8803176 37.3032,92.8161529 L37.2581,92.6889765 C37.1162,92.1039647 36.9325,91.5244824 36.7334,90.9394706 L36.7334,90.9262 C35.5971,87.5632118 33.6699,84.1515647 30.5459,81.4310941 C27.8234,79.0755647 25.3264,76.4479882 23.1,73.7374706 C24.0911,72.7001529 25.1108,71.7579412 25.993,71.1441765 C26.8873,70.5160353 27.5407,70.0062235 28.0489,69.5837765 L28.0654,69.5837765 C29.117,69.8525059 30.1631,70.0935882 31.2147,70.2749529 C33.4158,70.6819176 35.5718,70.8876118 37.5408,70.8610706 C39.2458,70.8367412 40.964,70.6598 42.6668,70.3490471 C43.7448,70.1743176 44.8096,69.9277059 45.8744,69.6490235 L45.8876,69.6490235 C46.3991,70.0593059 47.036,70.5425765 47.8885,71.1441765 C48.8675,71.8320353 50.0445,72.9578235 51.1808,74.1333765" id="Fill-784" fill="#301822"></path>
                    <path d="M58.036,93.2386 C57.9491,93.2894706 57.8655,93.3536118 57.7632,93.4299176 L57.75,93.4299176 L57.5531,93.5217059 L16.9961,93.5217059 C16.6683,93.3923176 16.5,93.3281765 16.5,93.3281765 C16.5,85.3414941 18.9387,80.6370706 21.6645,77.8767882 C25.0591,74.4153765 28.8882,74.0073059 28.8882,74.0073059 L28.9135,74.0073059 C29.7539,76.0001059 29.1137,75.6174706 29.7242,77.315 C29.9662,77.9796353 30.5195,78.6199412 31.2719,79.1938941 C32.2091,81.1645765 33.5731,83.3741294 35.2044,85.1479647 C36.2824,86.3235176 36.861,87.8595882 37.1602,89.2894941 C37.4594,87.8595882 38.0424,86.3235176 39.1204,85.1479647 C40.722,83.3984588 42.0739,81.2254 43.0067,79.2823647 C43.8559,78.7836118 44.5709,78.2870706 45.0505,77.9298706 C45.3618,77.7109059 45.6907,79.9724353 46.0317,79.6406706 C47.1768,78.5392118 48.5089,76.9566941 49.7189,75.4626471 C50.7386,76.0255412 51.8485,76.8173529 52.8979,77.9044353 C53.8505,78.8720824 54.7448,80.0774941 55.5357,81.5715412 C56.9965,84.3307176 58.0195,88.1006706 58.036,93.2386" id="Fill-785" fill="#CFB875"></path>
                    <path d="M37.4715,93.6024353 C37.4715,93.7915412 37.4583,93.9098706 37.4583,93.9098706 L37.1591,93.7539412 L36.8478,93.6024353 L23.3816,86.8665059 L28.2051,81.2198706 C28.2051,81.2198706 26.1327,79.2768353 24.9293,78.3821765 C24.376,77.9707882 22.9834,78.0592588 21.6634,78.2649529 C20.2026,78.4839176 18.81,78.8566 18.7,78.8798235 C18.8837,78.6365294 21.0551,75.9005765 23.3266,73.5892824 C24.3177,72.5519647 25.3374,71.6097529 26.2196,70.9948824 C27.1139,70.3700588 27.7673,69.8580353 28.2755,69.4355882 L28.292,69.4355882 C28.7584,69.0551647 29.128,68.7455176 29.469,68.4778941 C30.1488,68.7333529 30.8429,68.949 31.5249,69.1403176 C31.4996,69.4588118 31.471,69.7916824 31.4413,70.1278706 C31.3841,70.6642235 31.3258,71.1884118 31.2554,71.6208118 C31.0299,73.1292353 29.7946,74.7261294 30.0223,76.0056353 C30.1807,76.9511647 30.6174,78.2008118 31.2708,79.5820588 C32.208,81.5527412 33.572,83.7622941 35.2033,85.5361294 C36.2813,86.7116824 36.8599,88.2477529 37.1591,89.6776588 C37.3879,90.7492588 37.4715,91.7755176 37.4847,92.5418941 C37.5001,92.9897765 37.4847,93.3591412 37.4715,93.6024353" id="Fill-786" fill="#966B54"></path>
                    <path d="M46.6847572,81.1325059 L51.5104572,86.7791412 L38.0420572,93.5150706 L37.7296572,93.6665765 L37.4304572,93.8225059 C37.4304572,93.8225059 37.4183572,93.7041765 37.4183572,93.5150706 C37.3886572,93.0163176 37.3765572,91.9546706 37.5305572,90.7039176 L37.5305572,90.6906471 C37.5844572,90.3445059 37.6427572,89.9729294 37.7296572,89.5902941 C38.0288572,88.1603882 38.6118572,86.6243176 39.6898572,85.4487647 C41.2914572,83.6992588 42.6433572,81.5262 43.5761572,79.5831647 C44.2427572,78.1775882 44.6959572,76.8726471 44.8664572,75.9182706 C45.0952572,74.6387647 43.8588572,73.0418706 43.6344572,71.5334471 C43.5761572,71.1121059 43.5178572,70.6266235 43.4639572,70.1146 C43.4221572,69.7817294 43.3924572,69.4621294 43.3638572,69.1447412 C44.0843572,68.949 44.8114572,68.7322471 45.5330572,68.4778941 C45.8608572,68.7322471 46.2150572,69.0407882 46.6715572,69.4123647 L46.6847572,69.4123647 C47.1962572,69.8215412 47.8331572,70.3059176 48.6856572,70.9075176 C49.6646572,71.5975882 50.8416572,72.7233765 51.9779572,73.8978235 C54.0910572,76.1217529 56.0347572,78.5635412 56.2085572,78.7924588 C56.0930572,78.7692353 54.8445572,78.4319412 53.4673572,78.2052353 C52.0769572,77.9718941 50.5578572,77.8579882 49.9627572,78.2948118 C48.7571572,79.1894706 46.6847572,81.1325059 46.6847572,81.1325059" id="Fill-787" fill="#966B54"></path>
                    <path d="M37.748686,22.0308353 C18.478886,22.0308353 18.369986,38.1899882 19.227986,48.7666471 C17.905786,46.2596118 13.997486,47.0337294 14.318686,50.9817294 C14.627786,54.7859647 20.148686,56.7522235 20.071686,56.3098706 C21.651286,65.0131647 30.715286,70.0438235 37.748686,70.0438235 L37.897186,70.0294471 L37.897186,22.0330471 L37.748686,22.0308353" id="Fill-788" fill="#C39D7F"></path>
                    <path d="M15.7218582,49.5358731 C16.6744582,48.0119672 18.1418582,48.6688613 18.5059582,49.0039437 C18.8887582,49.3722025 19.1945582,49.8543672 18.9558582,50.7556613 C18.8205582,51.2621555 18.2903582,51.304179 18.4179582,52.0738731 C18.5598582,52.939779 18.9624582,52.996179 19.1912582,53.1919202 C19.4123582,53.3898731 19.6994582,53.5391672 19.8413582,53.9063202 C19.9755582,54.2701555 20.0019582,54.6616378 19.9238582,54.9934025 C19.7764582,55.6193319 18.8689582,55.1238966 18.2639582,54.8418966 C17.8646582,54.6638496 16.5908582,53.5856143 16.2696582,53.2228849 C15.4589582,52.3072143 15.0849582,50.5510731 15.7218582,49.5358731" id="Fill-789" fill="#B29177"></path>
                    <path d="M37.5441,22.0308353 C56.8183,22.0308353 56.9272,38.1899882 56.0714,48.7666471 C57.3903,46.2596118 61.2997,47.0337294 60.9818,50.9817294 C60.6727,54.7859647 55.1485,56.7522235 55.2255,56.3098706 C53.6448,65.0131647 44.5775,70.0438235 37.5441,70.0438235 L37.4,70.0294471 L37.4,22.0330471 L37.5441,22.0308353" id="Fill-790" fill="#D1AE8F"></path>
                    <path d="M60.3458988,49.5358731 C59.3943988,48.0119672 57.9236988,48.6688613 57.5628988,49.0039437 C57.1800988,49.3722025 56.8775988,49.8543672 57.1129988,50.7556613 C57.2471988,51.2621555 57.7817988,51.304179 57.6497988,52.0738731 C57.5078988,52.939779 57.1063988,52.996179 56.8775988,53.1919202 C56.6553988,53.3898731 56.3693988,53.5391672 56.2274988,53.9063202 C56.0921988,54.2701555 56.0668988,54.6616378 56.1405988,54.9934025 C56.2890988,55.6193319 57.1965988,55.1238966 57.8048988,54.8418966 C58.2063988,54.6638496 59.4746988,53.5856143 59.7958988,53.2228849 C60.6065988,52.3072143 60.9794988,50.5510731 60.3458988,49.5358731" id="Fill-791" fill="#B29177"></path>
                    <path d="M36.8503218,26.4543647 C30.5088218,26.4543647 25.8723218,28.2978706 23.0596218,31.9395412 C19.1414218,37.0243882 19.2888218,44.791 20.7364218,50.3690706 C21.1742218,52.0710235 21.4063218,56.6659647 21.7088218,58.3546471 C23.0761218,65.8912353 31.3811218,69.9122235 36.8503218,69.9122235 L36.9988218,69.8978471 L36.9988218,26.461 L36.8503218,26.4543647" id="Fill-792" fill="#D4B591"></path>
                    <path d="M51.0103,31.9406471 C48.224,28.3244118 43.6359,26.4831176 37.4,26.4543647 L37.4,69.8912118 C43.6425,69.8270706 51.1071,65.4278706 52.3875,58.3480118 C52.6933,56.6593294 52.921,52.0643882 53.3654,50.3624353 C54.8075,44.8009529 54.9483,37.0431882 51.0103,31.9406471" id="Fill-793" fill="#E9CAA3"></path>
                    <path d="M36.3677785,60.3972118 C36.7670785,60.3330706 37.1751785,60.2954706 37.5942785,60.2866235 C38.0155785,60.2954706 38.4269785,60.3330706 38.8262785,60.3972118 C41.0724785,60.7654706 42.1306785,61.9509765 43.3989785,63.6042706 C43.0095785,63.7557765 43.4693785,63.8553059 43.0381785,63.8951176 C41.7313785,64.0245059 38.7877785,63.5401294 37.7933785,63.3665059 L37.7933785,63.3056824 L37.7548785,63.3023647 L37.7449785,63.3023647 L37.5942785,63.3311176 L37.4490785,63.3023647 L37.4391785,63.3023647 L37.4006785,63.3056824 L37.4006785,63.3665059 C36.4029785,63.5401294 33.4626785,64.0245059 32.1558785,63.8951176 C31.7213785,63.8553059 32.1855785,63.7557765 31.7961785,63.6042706 C33.0633785,61.9509765 34.1215785,60.7654706 36.3677785,60.3972118 L36.3677785,60.3972118 Z M46.1104785,62.4121294 C45.9949785,62.0106941 45.8112785,61.6501765 45.6253785,61.3217294 C44.7948785,57.9576353 41.6345785,55.4174235 37.7933785,55.225 L37.7933785,55.2073059 L37.5942785,55.2150471 L37.4006785,55.2073059 L37.4006785,55.225 C33.5583785,55.4174235 30.3991785,57.9576353 29.5686785,61.3217294 C29.3827785,61.6501765 29.1957785,62.0106941 29.0835785,62.4121294 C28.4752785,64.5276824 28.1892785,66.1533294 29.7820785,71.1939412 C29.7974785,71.2182706 36.9980785,83.3553294 45.4064785,71.1961529 L45.4130785,71.1939412 C47.0025785,66.1533294 46.7187785,64.5276824 46.1104785,62.4121294 L46.1104785,62.4121294 Z" id="Fill-794" fill="#FDFBF9"></path>
                    <path d="M55.7338115,22.4657151 C53.7615115,20.6266327 51.2711115,19.9675269 51.2711115,19.9675269 C51.2711115,19.9675269 45.7557115,17.2061386 41.5570115,15.2343504 C37.3583115,13.2658798 30.5339115,14.8406563 26.9908115,15.7618563 C23.4455115,16.6797386 19.2270115,21.7258798 17.9147115,24.4883739 C16.6046115,27.2497621 13.3387115,33.248068 12.2904115,37.5853386 C11.2410115,41.924821 14.7709115,46.1327033 16.9720115,47.0295739 C18.4009115,47.6167974 18.4900115,50.986421 18.4900115,50.986421 L20.0575115,51.6798092 C20.0575115,51.6798092 19.0950115,49.3264916 19.2369115,46.9466327 C19.3271115,45.365221 19.0730115,40.608821 19.0730115,40.608821 C19.0730115,40.608821 25.8072115,39.2695974 30.7693115,37.9248445 C29.0929115,39.978468 27.7146115,41.3785151 27.7146115,41.3785151 C30.6175115,40.3876445 32.9341115,38.7354563 34.7678115,36.886421 C32.2686115,40.4761151 29.4042115,43.3856916 29.4042115,43.3856916 C33.3554115,42.0387269 36.2253115,39.4675504 38.2592115,36.8333386 C35.5950115,41.3619269 31.4634115,45.5565386 31.4634115,45.5565386 C40.8211115,42.366068 44.1288115,32.3102798 44.5589115,30.8693151 L44.6370115,30.7996445 C45.8272115,31.0783269 47.7962115,31.7838798 50.2382115,33.5997386 C52.7220115,35.447668 55.7756115,38.0033621 55.7756115,43.5327739 C55.7756115,45.3818092 54.9517115,50.7575033 54.9517115,50.7575033 L55.7756115,50.1724916 C55.7756115,50.1724916 55.7756115,48.0879033 58.1307115,46.7818563 C60.0106115,45.7401151 60.4869115,42.1946563 60.4869115,40.7315739 C60.4869115,30.9367739 57.7028115,24.3070092 55.7338115,22.4657151" id="Fill-795" fill="#FFFFFF"></path>
                    <path d="M38.3651261,34.4200353 C17.4090261,34.4200353 0.419526132,30.1369529 0.419526132,24.8530471 C0.419526132,24.6495647 0.445926132,24.4460824 0.496526132,24.2426 C-0.700273868,26.7208824 -0.117273868,30.3393294 6.57842613,35.0890941 C6.57842613,35.0890941 16.7358261,43.3301294 51.7796261,42.0063882 C51.7796261,42.0063882 77.1181261,40.7567412 76.2942261,25.1715412 C75.6309261,30.3061529 58.9065261,34.4200353 38.3651261,34.4200353" id="Fill-796" fill="#CFB875"></path>
                    <path d="M37.9456,34.0031176 C58.487,34.0031176 75.2114,29.8892353 75.8747,24.7546235 C75.8549,24.4062706 75.823,24.0490706 75.7779,23.6852353 L75.7328,23.5458941 C75.3731,28.5809765 58.982,32.6362471 38.8113,32.6362471 C18.4173,32.6362471 1.8832,28.4891882 1.8832,23.3744824 C1.8832,22.1159882 2.8897,20.9138941 4.708,19.8190706 C4.3791,19.9683647 4.0645,20.1231882 3.7675,20.2769059 C2.6708,20.8840353 0.924,22.0662235 0.077,23.8256824 C0.0264,24.0291647 0,24.2326471 0,24.4361294 C0,29.7200353 16.9895,34.0031176 37.9456,34.0031176" id="Fill-797" fill="#966B54"></path>
                    <path d="M75.4182,24.2348588 C75.4182,20.0844824 64.5172,16.5699882 49.5,15.3955412 C50.6616,19.6952118 51.6824,25.3341059 52.4029,32.7114471 C52.4029,32.7114471 52.3061,32.7578941 52.1257,32.8452588 C65.5754,31.5049294 75.1388,28.2403647 75.4149,24.4062706 L75.3445,24.2315412 L75.4182,24.2348588" id="Fill-798" fill="#DEC88A"></path>
                    <path d="M29.0763,15.3955412 C18.1973,16.1652353 9.3555,18.1536118 5.0468,20.7347412 L5.0534,20.7369529 L5.0248,20.7513294 C3.2065,21.8461529 2.2,23.0482471 2.2,24.3067412 C2.2,28.0003882 10.8196,31.1897529 23.2881,32.6771647 C23.2166,32.5754235 23.1396,32.4781059 23.0692,32.3763647 C23.0692,32.3763647 25.366,23.5812824 29.0763,15.3955412" id="Fill-799" fill="#DEC88A"></path>
                    <path d="M50.1655,14.6402692 C45.7446,-1.7102014 39.2524,1.22370448 39.2524,1.22370448 C35.3331,2.8515633 31.8384,8.54464566 29.1071,14.5683868 C25.3968,22.754128 23.1,31.5492104 23.1,31.5492104 C23.1704,31.6509515 23.2474,31.7482692 23.3189,31.8500104 C28.1193,32.4206457 33.4895,32.7413515 39.1589,32.7413515 C43.9758,32.7413515 48.5738,32.511328 52.7912,32.0899868 C52.9716,32.0026221 53.0684,31.9561751 53.0684,31.9561751 C52.3479,24.5788339 51.3271,18.9399398 50.1655,14.6402692" id="Fill-800" fill="#CFB875"></path>
                </g>
            </g>
        </g>
    </g>
</svg>